<svg width="453" height="231" viewBox="0 0 453 231" fill="none" xmlns="http://www.w3.org/2000/svg">
<path d="M29.3515 105.28C19.4528 105.28 12.3062 103.296 7.9115 99.328C3.5595 95.36 1.27683 88.768 1.0635 79.552C0.978167 74.7733 0.914167 70.1867 0.8715 65.792C0.828834 61.3973 0.8075 57.0667 0.8075 52.8C0.8075 48.4907 0.828834 44.1173 0.8715 39.68C0.914167 35.2427 0.978167 30.6133 1.0635 25.792C1.1915 16.96 3.51683 10.5173 8.0395 6.464C12.6048 2.36799 19.7088 0.319992 29.3515 0.319992C38.7808 0.319992 45.7142 2.41066 50.1515 6.592C54.6315 10.7733 56.9995 17.216 57.2555 25.92C57.2982 27.328 57.3195 28.864 57.3195 30.528C57.3195 32.1493 57.2982 33.792 57.2555 35.456C57.2128 37.0773 57.1702 38.592 57.1275 40H37.9275C37.9702 38.4213 38.0128 36.7787 38.0555 35.072C38.0982 33.3227 38.1195 31.5947 38.1195 29.888C38.1195 28.1387 38.0982 26.4747 38.0555 24.896C38.0128 21.696 37.3088 19.4133 35.9435 18.048C34.5782 16.64 32.3808 15.936 29.3515 15.936C26.2368 15.936 23.9542 16.64 22.5035 18.048C21.0955 19.4133 20.3488 21.696 20.2635 24.896C20.1355 29.5893 20.0288 34.2613 19.9435 38.912C19.9008 43.5627 19.8795 48.192 19.8795 52.8C19.8795 57.408 19.9008 62.016 19.9435 66.624C20.0288 71.232 20.1355 75.8827 20.2635 80.576C20.3488 83.8187 21.0955 86.144 22.5035 87.552C23.9542 88.96 26.2368 89.664 29.3515 89.664C32.5515 89.664 34.8555 88.96 36.2635 87.552C37.6715 86.144 38.4395 83.8187 38.5675 80.576C38.6528 78.7413 38.6955 77.056 38.6955 75.52C38.7382 73.984 38.7382 72.4267 38.6955 70.848C38.6955 69.2693 38.6528 67.52 38.5675 65.6H57.7675C57.8528 67.648 57.8955 69.9733 57.8955 72.576C57.8955 75.1787 57.8528 77.504 57.7675 79.552C57.5115 88.768 55.1862 95.36 50.7915 99.328C46.4395 103.296 39.2928 105.28 29.3515 105.28ZM68.2125 104V1.6H94.1965C103.754 1.6 110.645 3.54133 114.869 7.424C119.135 11.264 121.418 17.6427 121.717 26.56C121.802 28.9493 121.845 31.04 121.845 32.832C121.887 34.624 121.887 36.416 121.845 38.208C121.845 40 121.802 42.0907 121.717 44.48C121.546 50.0267 120.607 54.5707 118.901 58.112C117.237 61.6533 114.634 64.3627 111.093 66.24L123.125 104H102.773L93.0445 69.44H87.4125V104H68.2125ZM87.4125 52.544H94.1965C96.8845 52.544 98.9112 51.9253 100.277 50.688C101.642 49.4507 102.389 47.7227 102.517 45.504C102.645 43.4133 102.73 41.2373 102.773 38.976C102.815 36.672 102.815 34.3893 102.773 32.128C102.73 29.824 102.645 27.6267 102.517 25.536C102.389 23.2747 101.642 21.5467 100.277 20.352C98.9112 19.1147 96.8845 18.496 94.1965 18.496H87.4125V52.544ZM133.088 104V1.6H179.936V18.496H152.288V43.456H178.656V60.352H152.288V87.104H179.936V104H133.088ZM185.867 104L200.075 1.6H232.843L247.051 104H227.339L225.163 82.624H207.755L205.579 104H185.867ZM209.547 65.728H223.371L221.067 43.072L219.531 18.496H213.387L211.851 43.072L209.547 65.728ZM262.806 104V18.496H245.078V1.6H299.734V18.496H282.006V104H262.806ZM306.713 104V1.6H325.913V104H306.713ZM349.081 104L334.233 1.6H354.073L361.625 52.928L362.777 87.104H368.921L370.073 52.928L377.625 1.6H397.465L382.617 104H349.081ZM405.838 104V1.6H452.686V18.496H425.038V43.456H451.406V60.352H425.038V87.104H452.686V104H405.838ZM32.054 229L46.262 126.6H79.03L93.238 229H73.526L71.35 207.624H53.942L51.766 229H32.054ZM55.734 190.728H69.558L67.254 168.072L65.718 143.496H59.574L58.038 168.072L55.734 190.728ZM127.542 230.28C121.014 230.28 115.702 229.427 111.606 227.72C107.553 225.971 104.523 223.219 102.518 219.464C100.555 215.667 99.4673 210.696 99.254 204.552C99.126 200.968 99.0193 196.893 98.934 192.328C98.8913 187.72 98.87 182.984 98.87 178.12C98.87 173.256 98.8913 168.563 98.934 164.04C99.0193 159.517 99.126 155.528 99.254 152.072C99.51 145.715 100.619 140.573 102.582 136.648C104.587 132.723 107.617 129.864 111.67 128.072C115.766 126.237 121.057 125.32 127.542 125.32C136.971 125.32 143.841 127.304 148.15 131.272C152.459 135.197 154.891 141.747 155.446 150.92C155.574 152.883 155.638 155.229 155.638 157.96C155.638 160.648 155.574 162.995 155.446 165H136.246C136.374 162.184 136.438 159.453 136.438 156.808C136.438 154.163 136.374 151.432 136.246 148.616C136.075 145.843 135.307 143.88 133.942 142.728C132.619 141.533 130.486 140.936 127.542 140.936C124.47 140.936 122.23 141.533 120.822 142.728C119.457 143.88 118.667 145.843 118.454 148.616C118.198 153.096 118.006 157.811 117.878 162.76C117.75 167.667 117.686 172.659 117.686 177.736C117.686 182.813 117.75 187.827 117.878 192.776C118.006 197.683 118.198 202.376 118.454 206.856C118.667 209.672 119.457 211.677 120.822 212.872C122.23 214.067 124.47 214.664 127.542 214.664C130.742 214.664 133.067 214.067 134.518 212.872C136.011 211.677 136.886 209.672 137.142 206.856C137.227 205.875 137.27 204.701 137.27 203.336C137.313 201.928 137.313 200.541 137.27 199.176C137.27 197.768 137.227 196.573 137.142 195.592H130.102V178.952H155.83C156.043 182.835 156.129 187.101 156.086 191.752C156.043 196.36 155.915 200.627 155.702 204.552C155.275 213.768 152.865 220.36 148.47 224.328C144.118 228.296 137.142 230.28 127.542 230.28ZM167.025 229V126.6H213.873V143.496H186.225V168.456H212.593V185.352H186.225V212.104H213.873V229H167.025ZM223.9 229V126.6H255.516L263.196 159.24L270.236 212.104H276.124L272.54 170.504L271.004 126.6H290.332V229H257.18L249.5 195.464L244.252 143.368H238.108L241.436 189.704L243.1 229H223.9ZM330.414 230.28C320.515 230.28 313.369 228.296 308.974 224.328C304.622 220.36 302.339 213.768 302.126 204.552C302.041 199.773 301.977 195.187 301.934 190.792C301.891 186.397 301.87 182.067 301.87 177.8C301.87 173.491 301.891 169.117 301.934 164.68C301.977 160.243 302.041 155.613 302.126 150.792C302.254 141.96 304.579 135.517 309.102 131.464C313.667 127.368 320.771 125.32 330.414 125.32C339.843 125.32 346.777 127.411 351.214 131.592C355.694 135.773 358.062 142.216 358.318 150.92C358.361 152.328 358.382 153.864 358.382 155.528C358.382 157.149 358.361 158.792 358.318 160.456C358.275 162.077 358.233 163.592 358.19 165H338.99C339.033 163.421 339.075 161.779 339.118 160.072C339.161 158.323 339.182 156.595 339.182 154.888C339.182 153.139 339.161 151.475 339.118 149.896C339.075 146.696 338.371 144.413 337.006 143.048C335.641 141.64 333.443 140.936 330.414 140.936C327.299 140.936 325.017 141.64 323.566 143.048C322.158 144.413 321.411 146.696 321.326 149.896C321.198 154.589 321.091 159.261 321.006 163.912C320.963 168.563 320.942 173.192 320.942 177.8C320.942 182.408 320.963 187.016 321.006 191.624C321.091 196.232 321.198 200.883 321.326 205.576C321.411 208.819 322.158 211.144 323.566 212.552C325.017 213.96 327.299 214.664 330.414 214.664C333.614 214.664 335.918 213.96 337.326 212.552C338.734 211.144 339.502 208.819 339.63 205.576C339.715 203.741 339.758 202.056 339.758 200.52C339.801 198.984 339.801 197.427 339.758 195.848C339.758 194.269 339.715 192.52 339.63 190.6H358.83C358.915 192.648 358.958 194.973 358.958 197.576C358.958 200.179 358.915 202.504 358.83 204.552C358.574 213.768 356.249 220.36 351.854 224.328C347.502 228.296 340.355 230.28 330.414 230.28ZM382.971 229V196.36H380.923L363.771 126.6H383.355L388.859 151.432L390.779 181.512H394.363L396.283 151.432L401.787 126.6H421.371L404.091 196.36H402.171V229H382.971Z" fill="#CAFA08"/>
</svg>
