<svg width="455" height="233" viewBox="0 0 455 233" fill="none" xmlns="http://www.w3.org/2000/svg">
<mask id="path-1-outside-1_31_2" maskUnits="userSpaceOnUse" x="0" y="0" width="455" height="233" fill="black">
<rect fill="white" width="455" height="233"/>
<path d="M30.3515 106.28C20.4528 106.28 13.3062 104.296 8.9115 100.328C4.5595 96.36 2.27683 89.768 2.0635 80.552C1.97817 75.7733 1.91417 71.1867 1.8715 66.792C1.82883 62.3973 1.8075 58.0667 1.8075 53.8C1.8075 49.4907 1.82883 45.1173 1.8715 40.68C1.91417 36.2427 1.97817 31.6133 2.0635 26.792C2.1915 17.96 4.51683 11.5173 9.0395 7.464C13.6048 3.36799 20.7088 1.31999 30.3515 1.31999C39.7808 1.31999 46.7142 3.41066 51.1515 7.592C55.6315 11.7733 57.9995 18.216 58.2555 26.92C58.2982 28.328 58.3195 29.864 58.3195 31.528C58.3195 33.1493 58.2982 34.792 58.2555 36.456C58.2128 38.0773 58.1702 39.592 58.1275 41H38.9275C38.9702 39.4213 39.0128 37.7787 39.0555 36.072C39.0982 34.3227 39.1195 32.5947 39.1195 30.888C39.1195 29.1387 39.0982 27.4747 39.0555 25.896C39.0128 22.696 38.3088 20.4133 36.9435 19.048C35.5782 17.64 33.3808 16.936 30.3515 16.936C27.2368 16.936 24.9542 17.64 23.5035 19.048C22.0955 20.4133 21.3488 22.696 21.2635 25.896C21.1355 30.5893 21.0288 35.2613 20.9435 39.912C20.9008 44.5627 20.8795 49.192 20.8795 53.8C20.8795 58.408 20.9008 63.016 20.9435 67.624C21.0288 72.232 21.1355 76.8827 21.2635 81.576C21.3488 84.8187 22.0955 87.144 23.5035 88.552C24.9542 89.96 27.2368 90.664 30.3515 90.664C33.5515 90.664 35.8555 89.96 37.2635 88.552C38.6715 87.144 39.4395 84.8187 39.5675 81.576C39.6528 79.7413 39.6955 78.056 39.6955 76.52C39.7382 74.984 39.7382 73.4267 39.6955 71.848C39.6955 70.2693 39.6528 68.52 39.5675 66.6H58.7675C58.8528 68.648 58.8955 70.9733 58.8955 73.576C58.8955 76.1787 58.8528 78.504 58.7675 80.552C58.5115 89.768 56.1862 96.36 51.7915 100.328C47.4395 104.296 40.2928 106.28 30.3515 106.28ZM69.2125 105V2.6H95.1965C104.754 2.6 111.645 4.54133 115.869 8.424C120.135 12.264 122.418 18.6427 122.717 27.56C122.802 29.9493 122.845 32.04 122.845 33.832C122.887 35.624 122.887 37.416 122.845 39.208C122.845 41 122.802 43.0907 122.717 45.48C122.546 51.0267 121.607 55.5707 119.901 59.112C118.237 62.6533 115.634 65.3627 112.093 67.24L124.125 105H103.773L94.0445 70.44H88.4125V105H69.2125ZM88.4125 53.544H95.1965C97.8845 53.544 99.9112 52.9253 101.277 51.688C102.642 50.4507 103.389 48.7227 103.517 46.504C103.645 44.4133 103.73 42.2373 103.773 39.976C103.815 37.672 103.815 35.3893 103.773 33.128C103.73 30.824 103.645 28.6267 103.517 26.536C103.389 24.2747 102.642 22.5467 101.277 21.352C99.9112 20.1147 97.8845 19.496 95.1965 19.496H88.4125V53.544ZM134.088 105V2.6H180.936V19.496H153.288V44.456H179.656V61.352H153.288V88.104H180.936V105H134.088ZM186.867 105L201.075 2.6H233.843L248.051 105H228.339L226.163 83.624H208.755L206.579 105H186.867ZM210.547 66.728H224.371L222.067 44.072L220.531 19.496H214.387L212.851 44.072L210.547 66.728ZM263.806 105V19.496H246.078V2.6H300.734V19.496H283.006V105H263.806ZM307.713 105V2.6H326.913V105H307.713ZM350.081 105L335.233 2.6H355.073L362.625 53.928L363.777 88.104H369.921L371.073 53.928L378.625 2.6H398.465L383.617 105H350.081ZM406.838 105V2.6H453.686V19.496H426.038V44.456H452.406V61.352H426.038V88.104H453.686V105H406.838ZM33.054 230L47.262 127.6H80.03L94.238 230H74.526L72.35 208.624H54.942L52.766 230H33.054ZM56.734 191.728H70.558L68.254 169.072L66.718 144.496H60.574L59.038 169.072L56.734 191.728ZM128.542 231.28C122.014 231.28 116.702 230.427 112.606 228.72C108.553 226.971 105.523 224.219 103.518 220.464C101.555 216.667 100.467 211.696 100.254 205.552C100.126 201.968 100.019 197.893 99.934 193.328C99.8913 188.72 99.87 183.984 99.87 179.12C99.87 174.256 99.8913 169.563 99.934 165.04C100.019 160.517 100.126 156.528 100.254 153.072C100.51 146.715 101.619 141.573 103.582 137.648C105.587 133.723 108.617 130.864 112.67 129.072C116.766 127.237 122.057 126.32 128.542 126.32C137.971 126.32 144.841 128.304 149.15 132.272C153.459 136.197 155.891 142.747 156.446 151.92C156.574 153.883 156.638 156.229 156.638 158.96C156.638 161.648 156.574 163.995 156.446 166H137.246C137.374 163.184 137.438 160.453 137.438 157.808C137.438 155.163 137.374 152.432 137.246 149.616C137.075 146.843 136.307 144.88 134.942 143.728C133.619 142.533 131.486 141.936 128.542 141.936C125.47 141.936 123.23 142.533 121.822 143.728C120.457 144.88 119.667 146.843 119.454 149.616C119.198 154.096 119.006 158.811 118.878 163.76C118.75 168.667 118.686 173.659 118.686 178.736C118.686 183.813 118.75 188.827 118.878 193.776C119.006 198.683 119.198 203.376 119.454 207.856C119.667 210.672 120.457 212.677 121.822 213.872C123.23 215.067 125.47 215.664 128.542 215.664C131.742 215.664 134.067 215.067 135.518 213.872C137.011 212.677 137.886 210.672 138.142 207.856C138.227 206.875 138.27 205.701 138.27 204.336C138.313 202.928 138.313 201.541 138.27 200.176C138.27 198.768 138.227 197.573 138.142 196.592H131.102V179.952H156.83C157.043 183.835 157.129 188.101 157.086 192.752C157.043 197.36 156.915 201.627 156.702 205.552C156.275 214.768 153.865 221.36 149.47 225.328C145.118 229.296 138.142 231.28 128.542 231.28ZM168.025 230V127.6H214.873V144.496H187.225V169.456H213.593V186.352H187.225V213.104H214.873V230H168.025ZM224.9 230V127.6H256.516L264.196 160.24L271.236 213.104H277.124L273.54 171.504L272.004 127.6H291.332V230H258.18L250.5 196.464L245.252 144.368H239.108L242.436 190.704L244.1 230H224.9ZM331.414 231.28C321.515 231.28 314.369 229.296 309.974 225.328C305.622 221.36 303.339 214.768 303.126 205.552C303.041 200.773 302.977 196.187 302.934 191.792C302.891 187.397 302.87 183.067 302.87 178.8C302.87 174.491 302.891 170.117 302.934 165.68C302.977 161.243 303.041 156.613 303.126 151.792C303.254 142.96 305.579 136.517 310.102 132.464C314.667 128.368 321.771 126.32 331.414 126.32C340.843 126.32 347.777 128.411 352.214 132.592C356.694 136.773 359.062 143.216 359.318 151.92C359.361 153.328 359.382 154.864 359.382 156.528C359.382 158.149 359.361 159.792 359.318 161.456C359.275 163.077 359.233 164.592 359.19 166H339.99C340.033 164.421 340.075 162.779 340.118 161.072C340.161 159.323 340.182 157.595 340.182 155.888C340.182 154.139 340.161 152.475 340.118 150.896C340.075 147.696 339.371 145.413 338.006 144.048C336.641 142.64 334.443 141.936 331.414 141.936C328.299 141.936 326.017 142.64 324.566 144.048C323.158 145.413 322.411 147.696 322.326 150.896C322.198 155.589 322.091 160.261 322.006 164.912C321.963 169.563 321.942 174.192 321.942 178.8C321.942 183.408 321.963 188.016 322.006 192.624C322.091 197.232 322.198 201.883 322.326 206.576C322.411 209.819 323.158 212.144 324.566 213.552C326.017 214.96 328.299 215.664 331.414 215.664C334.614 215.664 336.918 214.96 338.326 213.552C339.734 212.144 340.502 209.819 340.63 206.576C340.715 204.741 340.758 203.056 340.758 201.52C340.801 199.984 340.801 198.427 340.758 196.848C340.758 195.269 340.715 193.52 340.63 191.6H359.83C359.915 193.648 359.958 195.973 359.958 198.576C359.958 201.179 359.915 203.504 359.83 205.552C359.574 214.768 357.249 221.36 352.854 225.328C348.502 229.296 341.355 231.28 331.414 231.28ZM383.971 230V197.36H381.923L364.771 127.6H384.355L389.859 152.432L391.779 182.512H395.363L397.283 152.432L402.787 127.6H422.371L405.091 197.36H403.171V230H383.971Z"/>
</mask>
<path d="M8.9115 100.328L8.23774 101.067L8.24134 101.07L8.9115 100.328ZM2.0635 80.552L1.06365 80.5699L1.06377 80.5751L2.0635 80.552ZM1.8715 66.792L0.871547 66.8017L0.871547 66.8017L1.8715 66.792ZM1.8715 40.68L0.871546 40.6704L0.871546 40.6704L1.8715 40.68ZM2.0635 26.792L3.06335 26.8097L3.0634 26.8065L2.0635 26.792ZM9.0395 7.464L9.70691 8.20869L9.70731 8.20833L9.0395 7.464ZM51.1515 7.592L50.4657 8.31979L50.4692 8.32305L51.1515 7.592ZM58.2555 26.92L57.2559 26.9494L57.256 26.9503L58.2555 26.92ZM58.2555 36.456L59.2552 36.4823L59.2552 36.4816L58.2555 36.456ZM58.1275 41V42H59.0977L59.127 41.0303L58.1275 41ZM38.9275 41L37.9279 40.973L37.9001 42H38.9275V41ZM39.0555 36.072L40.0552 36.097L40.0552 36.0964L39.0555 36.072ZM39.0555 25.896L38.0555 25.9093L38.0559 25.923L39.0555 25.896ZM36.9435 19.048L36.2256 19.7441L36.231 19.7497L36.2364 19.7551L36.9435 19.048ZM23.5035 19.048L24.1996 19.7659L24.2 19.7656L23.5035 19.048ZM21.2635 25.896L22.2631 25.9233L22.2631 25.9227L21.2635 25.896ZM20.9435 39.912L19.9436 39.8936L19.9435 39.9028L20.9435 39.912ZM20.9435 67.624L19.9435 67.6333L19.9437 67.6425L20.9435 67.624ZM21.2635 81.576L22.2632 81.5497L22.2631 81.5487L21.2635 81.576ZM23.5035 88.552L22.7964 89.2591L22.8017 89.2644L22.807 89.2696L23.5035 88.552ZM37.2635 88.552L36.5564 87.8449L36.5564 87.8449L37.2635 88.552ZM39.5675 81.576L38.5686 81.5295L38.5683 81.5366L39.5675 81.576ZM39.6955 76.52L38.6959 76.4922L38.6955 76.5061V76.52H39.6955ZM39.6955 71.848H38.6955V71.8615L38.6959 71.875L39.6955 71.848ZM39.5675 66.6V65.6H38.5221L38.5685 66.6444L39.5675 66.6ZM58.7675 66.6L59.7666 66.5584L59.7267 65.6H58.7675V66.6ZM58.7675 80.552L57.7683 80.5104L57.7679 80.5242L58.7675 80.552ZM51.7915 100.328L51.1213 99.5858L51.1178 99.589L51.7915 100.328ZM30.3515 106.28V105.28C20.5457 105.28 13.7033 103.307 9.58166 99.5858L8.9115 100.328L8.24134 101.07C12.9091 105.285 20.36 107.28 30.3515 107.28V106.28ZM8.9115 100.328L9.58525 99.589C5.52463 95.8867 3.27374 89.6227 3.06323 80.5289L2.0635 80.552L1.06377 80.5751C1.27993 89.9133 3.59437 96.8333 8.23775 101.067L8.9115 100.328ZM2.0635 80.552L3.06334 80.5341C2.97805 75.758 2.91409 71.174 2.87145 66.7823L1.8715 66.792L0.871547 66.8017C0.914242 71.1993 0.978282 75.7887 1.06366 80.5699L2.0635 80.552ZM1.8715 66.792L2.87145 66.7823C2.82882 62.3908 2.8075 58.0633 2.8075 53.8H1.8075H0.8075C0.8075 58.07 0.82885 62.4039 0.871547 66.8017L1.8715 66.792ZM1.8075 53.8H2.8075C2.8075 49.494 2.82882 45.1238 2.87145 40.6896L1.8715 40.68L0.871546 40.6704C0.82885 45.1108 0.8075 49.4874 0.8075 53.8H1.8075ZM1.8715 40.68L2.87145 40.6896C2.91409 36.2552 2.97805 31.6286 3.06334 26.8097L2.0635 26.792L1.06366 26.7743C0.97828 31.5981 0.914241 36.2301 0.871546 40.6704L1.8715 40.68ZM2.0635 26.792L3.0634 26.8065C3.18921 18.1251 5.47164 12.0044 9.70691 8.20869L9.0395 7.464L8.37209 6.71931C3.56202 11.0302 1.19379 17.7949 1.06361 26.7775L2.0635 26.792ZM9.0395 7.464L9.70731 8.20833C14.009 4.34886 20.8207 2.31999 30.3515 2.31999V1.31999V0.319992C20.5969 0.319992 13.2007 2.38712 8.37169 6.71967L9.0395 7.464ZM30.3515 1.31999V2.31999C39.6607 2.31999 46.293 4.38785 50.4657 8.31978L51.1515 7.592L51.8373 6.86421C47.1353 2.43347 39.901 0.319992 30.3515 0.319992V1.31999ZM51.1515 7.592L50.4692 8.32305C54.6842 12.2571 57.0044 18.3987 57.2559 26.9494L58.2555 26.92L59.2551 26.8906C58.9946 18.0333 56.5788 11.2896 51.8338 6.86094L51.1515 7.592ZM58.2555 26.92L57.256 26.9503C57.2983 28.3466 57.3195 29.8723 57.3195 31.528H58.3195H59.3195C59.3195 29.8556 59.2981 28.3094 59.255 26.8897L58.2555 26.92ZM58.3195 31.528H57.3195C57.3195 33.1406 57.2983 34.7747 57.2558 36.4304L58.2555 36.456L59.2552 36.4816C59.2981 34.8093 59.3195 33.1581 59.3195 31.528H58.3195ZM58.2555 36.456L57.2559 36.4297C57.2132 38.0499 57.1706 39.5632 57.128 40.9697L58.1275 41L59.127 41.0303C59.1698 39.6208 59.2125 38.1048 59.2552 36.4823L58.2555 36.456ZM58.1275 41V40H38.9275V41V42H58.1275V41ZM38.9275 41L39.9271 41.027C39.9698 39.4476 40.0125 37.8043 40.0552 36.097L39.0555 36.072L38.0558 36.047C38.0132 37.753 37.9705 39.395 37.9279 40.973L38.9275 41ZM39.0555 36.072L40.0552 36.0964C40.0981 34.3391 40.1195 32.603 40.1195 30.888H39.1195H38.1195C38.1195 32.5863 38.0983 34.3062 38.0558 36.0476L39.0555 36.072ZM39.1195 30.888H40.1195C40.1195 29.1306 40.0981 27.4575 40.0551 25.869L39.0555 25.896L38.0559 25.923C38.0983 27.4918 38.1195 29.1467 38.1195 30.888H39.1195ZM39.0555 25.896L40.0554 25.8827C40.0114 22.5838 39.2895 19.9797 37.6506 18.3409L36.9435 19.048L36.2364 19.7551C37.3282 20.8469 38.0142 22.8082 38.0556 25.9093L39.0555 25.896ZM36.9435 19.048L37.6614 18.3519C36.0265 16.6659 33.5068 15.936 30.3515 15.936V16.936V17.936C33.2548 17.936 35.1298 18.6141 36.2256 19.7441L36.9435 19.048ZM30.3515 16.936V15.936C27.1136 15.936 24.5236 16.6643 22.807 18.3304L23.5035 19.048L24.2 19.7656C25.3847 18.6157 27.36 17.936 30.3515 17.936V16.936ZM23.5035 19.048L22.8074 18.3301C21.1231 19.9633 20.352 22.5652 20.2639 25.8693L21.2635 25.896L22.2631 25.9227C22.3457 22.8268 23.0679 20.8634 24.1996 19.7659L23.5035 19.048ZM21.2635 25.896L20.2639 25.8687C20.1358 30.565 20.0291 35.24 19.9437 39.8936L20.9435 39.912L21.9433 39.9303C22.0286 35.2827 22.1352 30.6136 22.2631 25.9233L21.2635 25.896ZM20.9435 39.912L19.9435 39.9028C19.9008 44.5565 19.8795 49.1889 19.8795 53.8H20.8795H21.8795C21.8795 49.1951 21.9008 44.5688 21.9435 39.9212L20.9435 39.912ZM20.8795 53.8H19.8795C19.8795 58.4111 19.9008 63.0222 19.9435 67.6333L20.9435 67.624L21.9435 67.6147C21.9008 63.0098 21.8795 58.4049 21.8795 53.8H20.8795ZM20.9435 67.624L19.9437 67.6425C20.0291 72.2535 20.1358 76.9071 20.2639 81.6033L21.2635 81.576L22.2631 81.5487C22.1352 76.8583 22.0286 72.2105 21.9433 67.6055L20.9435 67.624ZM21.2635 81.576L20.2638 81.6023C20.3519 84.9484 21.1224 87.5851 22.7964 89.2591L23.5035 88.552L24.2106 87.8449C23.0686 86.7029 22.3458 84.6889 22.2632 81.5497L21.2635 81.576ZM23.5035 88.552L22.807 89.2696C24.5236 90.9357 27.1136 91.664 30.3515 91.664V90.664V89.664C27.36 89.664 25.3847 88.9843 24.2 87.8344L23.5035 88.552ZM30.3515 90.664V91.664C33.6621 91.664 36.2885 90.9412 37.9706 89.2591L37.2635 88.552L36.5564 87.8449C35.4225 88.9788 33.4409 89.664 30.3515 89.664V90.664ZM37.2635 88.552L37.9706 89.2591C39.6397 87.5901 40.4347 84.9601 40.5667 81.6154L39.5675 81.576L38.5683 81.5366C38.4443 84.6773 37.7033 86.6979 36.5564 87.8449L37.2635 88.552ZM39.5675 81.576L40.5664 81.6225C40.6523 79.7752 40.6955 78.0741 40.6955 76.52H39.6955H38.6955C38.6955 78.0379 38.6533 79.7075 38.5686 81.5295L39.5675 81.576ZM39.6955 76.52L40.6951 76.5478C40.7383 74.993 40.7383 73.4174 40.6951 71.821L39.6955 71.848L38.6959 71.875C38.7381 73.4359 38.738 74.975 38.6959 76.4922L39.6955 76.52ZM39.6955 71.848H40.6955C40.6955 70.2518 40.6524 68.4873 40.5665 66.5556L39.5675 66.6L38.5685 66.6444C38.6533 68.5527 38.6955 70.2869 38.6955 71.848H39.6955ZM39.5675 66.6V67.6H58.7675V66.6V65.6H39.5675V66.6ZM58.7675 66.6L57.7684 66.6416C57.853 68.6727 57.8955 70.9837 57.8955 73.576H58.8955H59.8955C59.8955 70.9629 59.8527 68.6233 59.7666 66.5584L58.7675 66.6ZM58.8955 73.576H57.8955C57.8955 76.1683 57.853 78.4793 57.7684 80.5104L58.7675 80.552L59.7666 80.5936C59.8527 78.5287 59.8955 76.1891 59.8955 73.576H58.8955ZM58.7675 80.552L57.7679 80.5242C57.5153 89.6163 55.2241 95.8813 51.1213 99.5858L51.7915 100.328L52.4617 101.07C57.1482 96.8387 59.5077 89.9197 59.7671 80.5798L58.7675 80.552ZM51.7915 100.328L51.1178 99.589C47.0409 103.306 40.2027 105.28 30.3515 105.28V106.28V107.28C40.383 107.28 47.8381 105.286 52.4653 101.067L51.7915 100.328ZM69.2125 105H68.2125V106H69.2125V105ZM69.2125 2.6V1.6H68.2125V2.6H69.2125ZM115.869 8.424L115.192 9.16026L115.2 9.16729L115.869 8.424ZM122.717 27.56L121.717 27.5935L121.717 27.5957L122.717 27.56ZM122.845 33.832H121.845V33.8439L121.845 33.8558L122.845 33.832ZM122.845 39.208L121.845 39.1842L121.845 39.1961V39.208H122.845ZM122.717 45.48L121.717 45.4443L121.717 45.4492L122.717 45.48ZM119.901 59.112L119 58.6778L118.995 58.6867L119.901 59.112ZM112.093 67.24L111.624 66.3565L110.886 66.7477L111.14 67.5436L112.093 67.24ZM124.125 105V106H125.493L125.077 104.696L124.125 105ZM103.773 105L102.81 105.271L103.015 106H103.773V105ZM94.0445 70.44L95.0071 70.169L94.8019 69.44H94.0445V70.44ZM88.4125 70.44V69.44H87.4125V70.44H88.4125ZM88.4125 105V106H89.4125V105H88.4125ZM88.4125 53.544H87.4125V54.544H88.4125V53.544ZM101.277 51.688L100.605 50.947L100.605 50.947L101.277 51.688ZM103.517 46.504L102.518 46.4429L102.518 46.4464L103.517 46.504ZM103.773 39.976L104.772 39.9949L104.772 39.9945L103.773 39.976ZM103.773 33.128L102.773 33.1465L102.773 33.1469L103.773 33.128ZM103.517 26.536L102.518 26.5925L102.518 26.5971L103.517 26.536ZM101.277 21.352L100.605 22.093L100.611 22.0988L100.618 22.1046L101.277 21.352ZM88.4125 19.496V18.496H87.4125V19.496H88.4125ZM69.2125 105H70.2125V2.6H69.2125H68.2125V105H69.2125ZM69.2125 2.6V3.6H95.1965V2.6V1.6H69.2125V2.6ZM95.1965 2.6V3.6C104.659 3.6 111.242 5.52933 115.192 9.16022L115.869 8.424L116.545 7.68777C112.047 3.55333 104.849 1.6 95.1965 1.6V2.6ZM115.869 8.424L115.2 9.16729C119.176 12.746 121.423 18.8003 121.717 27.5935L122.717 27.56L123.716 27.5265C123.413 18.4851 121.094 11.782 116.537 7.6807L115.869 8.424ZM122.717 27.56L121.717 27.5957C121.802 29.9768 121.845 32.0551 121.845 33.832H122.845H123.845C123.845 32.0249 123.801 29.9219 123.716 27.5243L122.717 27.56ZM122.845 33.832L121.845 33.8558C121.887 35.6319 121.887 37.4081 121.845 39.1842L122.845 39.208L123.844 39.2318C123.887 37.4239 123.887 35.6161 123.844 33.8082L122.845 33.832ZM122.845 39.208H121.845C121.845 40.9849 121.802 43.0632 121.717 45.4443L122.717 45.48L123.716 45.5157C123.801 43.1181 123.845 41.0151 123.845 39.208H122.845ZM122.717 45.48L121.717 45.4492C121.549 50.9096 120.626 55.3033 119 58.6779L119.901 59.112L120.801 59.5461C122.588 55.8381 123.543 51.1438 123.716 45.5108L122.717 45.48ZM119.901 59.112L118.995 58.6867C117.426 62.027 114.979 64.5779 111.624 66.3565L112.093 67.24L112.561 68.1235C116.289 66.1474 119.047 63.2797 120.806 59.5373L119.901 59.112ZM112.093 67.24L111.14 67.5436L123.172 105.304L124.125 105L125.077 104.696L113.045 66.9364L112.093 67.24ZM124.125 105V104H103.773V105V106H124.125V105ZM103.773 105L104.735 104.729L95.0071 70.169L94.0445 70.44L93.0819 70.711L102.81 105.271L103.773 105ZM94.0445 70.44V69.44H88.4125V70.44V71.44H94.0445V70.44ZM88.4125 70.44H87.4125V105H88.4125H89.4125V70.44H88.4125ZM88.4125 105V104H69.2125V105V106H88.4125V105ZM88.4125 53.544V54.544H95.1965V53.544V52.544H88.4125V53.544ZM95.1965 53.544V54.544C98.0206 54.544 100.33 53.8955 101.948 52.429L101.277 51.688L100.605 50.947C99.4925 51.9552 97.7484 52.544 95.1965 52.544V53.544ZM101.277 51.688L101.948 52.429C103.547 50.9803 104.375 48.9846 104.515 46.5616L103.517 46.504L102.518 46.4464C102.402 48.4607 101.737 49.921 100.605 50.947L101.277 51.688ZM103.517 46.504L104.515 46.5651C104.644 44.4593 104.729 42.2692 104.772 39.9949L103.773 39.976L102.773 39.9571C102.73 42.2055 102.645 44.3673 102.518 46.4429L103.517 46.504ZM103.773 39.976L104.772 39.9945C104.815 37.6783 104.815 35.3832 104.772 33.1091L103.773 33.128L102.773 33.1469C102.815 35.3955 102.815 37.6657 102.773 39.9575L103.773 39.976ZM103.773 33.128L104.772 33.1095C104.729 30.7927 104.644 28.5811 104.515 26.4749L103.517 26.536L102.518 26.5971C102.645 28.6723 102.73 30.8553 102.773 33.1465L103.773 33.128ZM103.517 26.536L104.515 26.4795C104.376 24.0205 103.55 22.0127 101.935 20.5994L101.277 21.352L100.618 22.1046C101.733 23.0806 102.401 24.5288 102.518 26.5925L103.517 26.536ZM101.277 21.352L101.948 20.611C100.33 19.1445 98.0206 18.496 95.1965 18.496V19.496V20.496C97.7484 20.496 99.4925 21.0848 100.605 22.093L101.277 21.352ZM95.1965 19.496V18.496H88.4125V19.496V20.496H95.1965V19.496ZM88.4125 19.496H87.4125V53.544H88.4125H89.4125V19.496H88.4125ZM134.088 105H133.088V106H134.088V105ZM134.088 2.6V1.6H133.088V2.6H134.088ZM180.936 2.6H181.936V1.6H180.936V2.6ZM180.936 19.496V20.496H181.936V19.496H180.936ZM153.288 19.496V18.496H152.288V19.496H153.288ZM153.288 44.456H152.288V45.456H153.288V44.456ZM179.656 44.456H180.656V43.456H179.656V44.456ZM179.656 61.352V62.352H180.656V61.352H179.656ZM153.288 61.352V60.352H152.288V61.352H153.288ZM153.288 88.104H152.288V89.104H153.288V88.104ZM180.936 88.104H181.936V87.104H180.936V88.104ZM180.936 105V106H181.936V105H180.936ZM134.088 105H135.088V2.6H134.088H133.088V105H134.088ZM134.088 2.6V3.6H180.936V2.6V1.6H134.088V2.6ZM180.936 2.6H179.936V19.496H180.936H181.936V2.6H180.936ZM180.936 19.496V18.496H153.288V19.496V20.496H180.936V19.496ZM153.288 19.496H152.288V44.456H153.288H154.288V19.496H153.288ZM153.288 44.456V45.456H179.656V44.456V43.456H153.288V44.456ZM179.656 44.456H178.656V61.352H179.656H180.656V44.456H179.656ZM179.656 61.352V60.352H153.288V61.352V62.352H179.656V61.352ZM153.288 61.352H152.288V88.104H153.288H154.288V61.352H153.288ZM153.288 88.104V89.104H180.936V88.104V87.104H153.288V88.104ZM180.936 88.104H179.936V105H180.936H181.936V88.104H180.936ZM180.936 105V104H134.088V105V106H180.936V105ZM186.867 105L185.876 104.863L185.718 106H186.867V105ZM201.075 2.6V1.6H200.204L200.084 2.46257L201.075 2.6ZM233.843 2.6L234.833 2.46257L234.713 1.6H233.843V2.6ZM248.051 105V106H249.199L249.041 104.863L248.051 105ZM228.339 105L227.344 105.101L227.435 106H228.339V105ZM226.163 83.624L227.157 83.5227L227.066 82.624H226.163V83.624ZM208.755 83.624V82.624H207.851L207.76 83.5227L208.755 83.624ZM206.579 105V106H207.482L207.573 105.101L206.579 105ZM210.547 66.728L209.552 66.6268L209.44 67.728H210.547V66.728ZM224.371 66.728V67.728H225.477L225.365 66.6268L224.371 66.728ZM222.067 44.072L221.068 44.1344L221.07 44.1538L221.072 44.1732L222.067 44.072ZM220.531 19.496L221.529 19.4336L221.47 18.496H220.531V19.496ZM214.387 19.496V18.496H213.447L213.388 19.4336L214.387 19.496ZM212.851 44.072L213.845 44.1732L213.847 44.1538L213.849 44.1344L212.851 44.072ZM186.867 105L187.857 105.137L202.065 2.73743L201.075 2.6L200.084 2.46257L185.876 104.863L186.867 105ZM201.075 2.6V3.6H233.843V2.6V1.6H201.075V2.6ZM233.843 2.6L232.852 2.73743L247.06 105.137L248.051 105L249.041 104.863L234.833 2.46257L233.843 2.6ZM248.051 105V104H228.339V105V106H248.051V105ZM228.339 105L229.333 104.899L227.157 83.5227L226.163 83.624L225.168 83.7253L227.344 105.101L228.339 105ZM226.163 83.624V82.624H208.755V83.624V84.624H226.163V83.624ZM208.755 83.624L207.76 83.5227L205.584 104.899L206.579 105L207.573 105.101L209.749 83.7253L208.755 83.624ZM206.579 105V104H186.867V105V106H206.579V105ZM210.547 66.728V67.728H224.371V66.728V65.728H210.547V66.728ZM224.371 66.728L225.365 66.6268L223.061 43.9708L222.067 44.072L221.072 44.1732L223.376 66.8292L224.371 66.728ZM222.067 44.072L223.065 44.0096L221.529 19.4336L220.531 19.496L219.532 19.5584L221.068 44.1344L222.067 44.072ZM220.531 19.496V18.496H214.387V19.496V20.496H220.531V19.496ZM214.387 19.496L213.388 19.4336L211.852 44.0096L212.851 44.072L213.849 44.1344L215.385 19.5584L214.387 19.496ZM212.851 44.072L211.856 43.9708L209.552 66.6268L210.547 66.728L211.541 66.8292L213.845 44.1732L212.851 44.072ZM263.806 105H262.806V106H263.806V105ZM263.806 19.496H264.806V18.496H263.806V19.496ZM246.078 19.496H245.078V20.496H246.078V19.496ZM246.078 2.6V1.6H245.078V2.6H246.078ZM300.734 2.6H301.734V1.6H300.734V2.6ZM300.734 19.496V20.496H301.734V19.496H300.734ZM283.006 19.496V18.496H282.006V19.496H283.006ZM283.006 105V106H284.006V105H283.006ZM263.806 105H264.806V19.496H263.806H262.806V105H263.806ZM263.806 19.496V18.496H246.078V19.496V20.496H263.806V19.496ZM246.078 19.496H247.078V2.6H246.078H245.078V19.496H246.078ZM246.078 2.6V3.6H300.734V2.6V1.6H246.078V2.6ZM300.734 2.6H299.734V19.496H300.734H301.734V2.6H300.734ZM300.734 19.496V18.496H283.006V19.496V20.496H300.734V19.496ZM283.006 19.496H282.006V105H283.006H284.006V19.496H283.006ZM283.006 105V104H263.806V105V106H283.006V105ZM307.713 105H306.713V106H307.713V105ZM307.713 2.6V1.6H306.713V2.6H307.713ZM326.913 2.6H327.913V1.6H326.913V2.6ZM326.913 105V106H327.913V105H326.913ZM307.713 105H308.713V2.6H307.713H306.713V105H307.713ZM307.713 2.6V3.6H326.913V2.6V1.6H307.713V2.6ZM326.913 2.6H325.913V105H326.913H327.913V2.6H326.913ZM326.913 105V104H307.713V105V106H326.913V105ZM350.081 105L349.091 105.143L349.215 106H350.081V105ZM335.233 2.6V1.6H334.077L334.243 2.7435L335.233 2.6ZM355.073 2.6L356.062 2.45443L355.936 1.6H355.073V2.6ZM362.625 53.928L363.624 53.8943L363.622 53.8381L363.614 53.7824L362.625 53.928ZM363.777 88.104L362.777 88.1377L362.81 89.104H363.777V88.104ZM369.921 88.104V89.104H370.887L370.92 88.1377L369.921 88.104ZM371.073 53.928L370.083 53.7824L370.075 53.8381L370.073 53.8943L371.073 53.928ZM378.625 2.6V1.6H377.761L377.635 2.45443L378.625 2.6ZM398.465 2.6L399.454 2.7435L399.62 1.6H398.465V2.6ZM383.617 105V106H384.482L384.606 105.143L383.617 105ZM350.081 105L351.07 104.857L336.222 2.4565L335.233 2.6L334.243 2.7435L349.091 105.143L350.081 105ZM335.233 2.6V3.6H355.073V2.6V1.6H335.233V2.6ZM355.073 2.6L354.083 2.74556L361.635 54.0736L362.625 53.928L363.614 53.7824L356.062 2.45443L355.073 2.6ZM362.625 53.928L361.625 53.9617L362.777 88.1377L363.777 88.104L364.776 88.0703L363.624 53.8943L362.625 53.928ZM363.777 88.104V89.104H369.921V88.104V87.104H363.777V88.104ZM369.921 88.104L370.92 88.1377L372.072 53.9617L371.073 53.928L370.073 53.8943L368.921 88.0703L369.921 88.104ZM371.073 53.928L372.062 54.0736L379.614 2.74556L378.625 2.6L377.635 2.45443L370.083 53.7824L371.073 53.928ZM378.625 2.6V3.6H398.465V2.6V1.6H378.625V2.6ZM398.465 2.6L397.475 2.4565L382.627 104.857L383.617 105L384.606 105.143L399.454 2.7435L398.465 2.6ZM383.617 105V104H350.081V105V106H383.617V105ZM406.838 105H405.838V106H406.838V105ZM406.838 2.6V1.6H405.838V2.6H406.838ZM453.686 2.6H454.686V1.6H453.686V2.6ZM453.686 19.496V20.496H454.686V19.496H453.686ZM426.038 19.496V18.496H425.038V19.496H426.038ZM426.038 44.456H425.038V45.456H426.038V44.456ZM452.406 44.456H453.406V43.456H452.406V44.456ZM452.406 61.352V62.352H453.406V61.352H452.406ZM426.038 61.352V60.352H425.038V61.352H426.038ZM426.038 88.104H425.038V89.104H426.038V88.104ZM453.686 88.104H454.686V87.104H453.686V88.104ZM453.686 105V106H454.686V105H453.686ZM406.838 105H407.838V2.6H406.838H405.838V105H406.838ZM406.838 2.6V3.6H453.686V2.6V1.6H406.838V2.6ZM453.686 2.6H452.686V19.496H453.686H454.686V2.6H453.686ZM453.686 19.496V18.496H426.038V19.496V20.496H453.686V19.496ZM426.038 19.496H425.038V44.456H426.038H427.038V19.496H426.038ZM426.038 44.456V45.456H452.406V44.456V43.456H426.038V44.456ZM452.406 44.456H451.406V61.352H452.406H453.406V44.456H452.406ZM452.406 61.352V60.352H426.038V61.352V62.352H452.406V61.352ZM426.038 61.352H425.038V88.104H426.038H427.038V61.352H426.038ZM426.038 88.104V89.104H453.686V88.104V87.104H426.038V88.104ZM453.686 88.104H452.686V105H453.686H454.686V88.104H453.686ZM453.686 105V104H406.838V105V106H453.686V105ZM33.054 230L32.0635 229.863L31.9057 231H33.054V230ZM47.262 127.6V126.6H46.3912L46.2715 127.463L47.262 127.6ZM80.03 127.6L81.0205 127.463L80.9008 126.6H80.03V127.6ZM94.238 230V231H95.3863L95.2285 229.863L94.238 230ZM74.526 230L73.5311 230.101L73.6226 231H74.526V230ZM72.35 208.624L73.3449 208.523L73.2534 207.624H72.35V208.624ZM54.942 208.624V207.624H54.0386L53.9471 208.523L54.942 208.624ZM52.766 230V231H53.6694L53.7609 230.101L52.766 230ZM56.734 191.728L55.7391 191.627L55.6271 192.728H56.734V191.728ZM70.558 191.728V192.728H71.6649L71.5529 191.627L70.558 191.728ZM68.254 169.072L67.2559 169.134L67.2572 169.154L67.2591 169.173L68.254 169.072ZM66.718 144.496L67.7161 144.434L67.6575 143.496H66.718V144.496ZM60.574 144.496V143.496H59.6346L59.5759 144.434L60.574 144.496ZM59.038 169.072L60.0329 169.173L60.0348 169.154L60.0361 169.134L59.038 169.072ZM33.054 230L34.0445 230.137L48.2525 127.737L47.262 127.6L46.2715 127.463L32.0635 229.863L33.054 230ZM47.262 127.6V128.6H80.03V127.6V126.6H47.262V127.6ZM80.03 127.6L79.0395 127.737L93.2475 230.137L94.238 230L95.2285 229.863L81.0205 127.463L80.03 127.6ZM94.238 230V229H74.526V230V231H94.238V230ZM74.526 230L75.5209 229.899L73.3449 208.523L72.35 208.624L71.3551 208.725L73.5311 230.101L74.526 230ZM72.35 208.624V207.624H54.942V208.624V209.624H72.35V208.624ZM54.942 208.624L53.9471 208.523L51.7711 229.899L52.766 230L53.7609 230.101L55.9369 208.725L54.942 208.624ZM52.766 230V229H33.054V230V231H52.766V230ZM56.734 191.728V192.728H70.558V191.728V190.728H56.734V191.728ZM70.558 191.728L71.5529 191.627L69.2489 168.971L68.254 169.072L67.2591 169.173L69.5631 191.829L70.558 191.728ZM68.254 169.072L69.2521 169.01L67.7161 144.434L66.718 144.496L65.7199 144.558L67.2559 169.134L68.254 169.072ZM66.718 144.496V143.496H60.574V144.496V145.496H66.718V144.496ZM60.574 144.496L59.5759 144.434L58.0399 169.01L59.038 169.072L60.0361 169.134L61.5721 144.558L60.574 144.496ZM59.038 169.072L58.0431 168.971L55.7391 191.627L56.734 191.728L57.7289 191.829L60.0329 169.173L59.038 169.072ZM112.606 228.72L112.21 229.638L112.221 229.643L112.606 228.72ZM103.518 220.464L102.63 220.923L102.636 220.935L103.518 220.464ZM100.254 205.552L101.253 205.517L101.253 205.516L100.254 205.552ZM99.934 193.328L98.934 193.337L98.9342 193.347L99.934 193.328ZM99.934 165.04L98.9341 165.021L98.934 165.031L99.934 165.04ZM100.254 153.072L99.2548 153.032L99.2547 153.035L100.254 153.072ZM103.582 137.648L102.691 137.193L102.688 137.201L103.582 137.648ZM112.67 129.072L113.074 129.987L113.079 129.985L112.67 129.072ZM149.15 132.272L148.473 133.008L148.477 133.011L149.15 132.272ZM156.446 151.92L155.448 151.98L155.448 151.985L156.446 151.92ZM156.446 166V167H157.384L157.444 166.064L156.446 166ZM137.246 166L136.247 165.955L136.2 167H137.246V166ZM137.246 149.616L138.245 149.571L138.245 149.563L138.244 149.555L137.246 149.616ZM134.942 143.728L134.272 144.47L134.284 144.481L134.297 144.492L134.942 143.728ZM121.822 143.728L122.467 144.492L122.469 144.491L121.822 143.728ZM119.454 149.616L118.457 149.539L118.456 149.549L118.456 149.559L119.454 149.616ZM118.878 163.76L119.878 163.786L119.878 163.786L118.878 163.76ZM118.878 193.776L117.878 193.802L117.878 193.802L118.878 193.776ZM119.454 207.856L118.456 207.913L118.456 207.922L118.457 207.932L119.454 207.856ZM121.822 213.872L121.163 214.625L121.169 214.63L121.175 214.635L121.822 213.872ZM135.518 213.872L134.893 213.091L134.888 213.096L134.882 213.1L135.518 213.872ZM138.142 207.856L139.138 207.947L139.138 207.943L138.142 207.856ZM138.27 204.336L137.27 204.306L137.27 204.321V204.336H138.27ZM138.27 200.176H137.27V200.192L137.27 200.207L138.27 200.176ZM138.142 196.592L139.138 196.505L139.059 195.592H138.142V196.592ZM131.102 196.592H130.102V197.592H131.102V196.592ZM131.102 179.952V178.952H130.102V179.952H131.102ZM156.83 179.952L157.828 179.897L157.777 178.952H156.83V179.952ZM157.086 192.752L158.086 192.761L158.086 192.761L157.086 192.752ZM156.702 205.552L155.703 205.498L155.703 205.506L156.702 205.552ZM149.47 225.328L148.8 224.586L148.796 224.589L149.47 225.328ZM128.542 231.28V230.28C122.089 230.28 116.921 229.435 112.991 227.797L112.606 228.72L112.221 229.643C116.483 231.419 121.939 232.28 128.542 232.28V231.28ZM112.606 228.72L113.002 227.802C109.148 226.139 106.295 223.54 104.4 219.993L103.518 220.464L102.636 220.935C104.752 224.897 107.957 227.803 112.21 229.638L112.606 228.72ZM103.518 220.464L104.406 220.005C102.535 216.384 101.464 211.573 101.253 205.517L100.254 205.552L99.2546 205.587C99.471 211.819 100.576 216.95 102.63 220.923L103.518 220.464ZM100.254 205.552L101.253 205.516C101.126 201.939 101.019 197.87 100.934 193.309L99.934 193.328L98.9342 193.347C99.0196 197.916 99.1264 201.997 99.2546 205.588L100.254 205.552ZM99.934 193.328L100.934 193.319C100.891 188.714 100.87 183.981 100.87 179.12H99.87H98.87C98.87 183.987 98.8913 188.726 98.934 193.337L99.934 193.328ZM99.87 179.12H100.87C100.87 174.259 100.891 169.569 100.934 165.049L99.934 165.04L98.934 165.031C98.8913 169.557 98.87 174.253 98.87 179.12H99.87ZM99.934 165.04L100.934 165.059C101.019 160.541 101.126 156.557 101.253 153.109L100.254 153.072L99.2547 153.035C99.1264 156.499 99.0196 160.494 98.9342 165.021L99.934 165.04ZM100.254 153.072L101.253 153.112C101.506 146.838 102.599 141.85 104.476 138.095L103.582 137.648L102.688 137.201C100.64 141.297 99.5141 146.592 99.2548 153.032L100.254 153.072ZM103.582 137.648L104.473 138.103C106.373 134.383 109.23 131.686 113.074 129.987L112.67 129.072L112.266 128.157C108.004 130.042 104.802 133.062 102.691 137.193L103.582 137.648ZM112.67 129.072L113.079 129.985C117.002 128.227 122.14 127.32 128.542 127.32V126.32V125.32C121.974 125.32 116.53 126.247 112.261 128.159L112.67 129.072ZM128.542 126.32V127.32C137.865 127.32 144.432 129.287 148.473 133.008L149.15 132.272L149.827 131.536C145.249 127.321 138.077 125.32 128.542 125.32V126.32ZM149.15 132.272L148.477 133.011C152.508 136.683 154.9 142.922 155.448 151.98L156.446 151.92L157.444 151.86C156.883 142.571 154.411 135.711 149.823 131.533L149.15 132.272ZM156.446 151.92L155.448 151.985C155.574 153.92 155.638 156.243 155.638 158.96H156.638H157.638C157.638 156.215 157.574 153.846 157.444 151.855L156.446 151.92ZM156.638 158.96H155.638C155.638 161.633 155.574 163.958 155.448 165.936L156.446 166L157.444 166.064C157.574 164.031 157.638 161.663 157.638 158.96H156.638ZM156.446 166V165H137.246V166V167H156.446V166ZM137.246 166L138.245 166.045C138.374 163.215 138.438 160.469 138.438 157.808H137.438H136.438C136.438 160.437 136.374 163.153 136.247 165.955L137.246 166ZM137.438 157.808H138.438C138.438 155.147 138.374 152.401 138.245 149.571L137.246 149.616L136.247 149.661C136.374 152.463 136.438 155.179 136.438 157.808H137.438ZM137.246 149.616L138.244 149.555C138.066 146.657 137.253 144.369 135.587 142.964L134.942 143.728L134.297 144.492C135.362 145.391 136.085 147.028 136.248 149.677L137.246 149.616ZM134.942 143.728L135.612 142.986C134.018 141.546 131.583 140.936 128.542 140.936V141.936V142.936C131.389 142.936 133.22 143.521 134.272 144.47L134.942 143.728ZM128.542 141.936V140.936C125.378 140.936 122.85 141.544 121.175 142.965L121.822 143.728L122.469 144.491C123.61 143.522 125.562 142.936 128.542 142.936V141.936ZM121.822 143.728L121.177 142.964C119.518 144.364 118.68 146.644 118.457 149.539L119.454 149.616L120.451 149.693C120.655 147.041 121.396 145.396 122.467 144.492L121.822 143.728ZM119.454 149.616L118.456 149.559C118.199 154.05 118.007 158.775 117.878 163.734L118.878 163.76L119.878 163.786C120.005 158.846 120.197 154.142 120.452 149.673L119.454 149.616ZM118.878 163.76L117.878 163.734C117.75 168.65 117.686 173.65 117.686 178.736H118.686H119.686C119.686 173.667 119.75 168.684 119.878 163.786L118.878 163.76ZM118.686 178.736H117.686C117.686 183.822 117.75 188.844 117.878 193.802L118.878 193.776L119.878 193.75C119.75 188.81 119.686 183.805 119.686 178.736H118.686ZM118.878 193.776L117.878 193.802C118.007 198.718 118.199 203.422 118.456 207.913L119.454 207.856L120.452 207.799C120.197 203.33 120.005 198.647 119.878 193.75L118.878 193.776ZM119.454 207.856L118.457 207.932C118.679 210.868 119.515 213.182 121.163 214.625L121.822 213.872L122.481 213.119C121.398 212.172 120.655 210.476 120.451 207.78L119.454 207.856ZM121.822 213.872L121.175 214.635C122.85 216.056 125.378 216.664 128.542 216.664V215.664V214.664C125.562 214.664 123.61 214.078 122.469 213.109L121.822 213.872ZM128.542 215.664V216.664C131.825 216.664 134.436 216.059 136.154 214.644L135.518 213.872L134.882 213.1C133.699 214.074 131.659 214.664 128.542 214.664V215.664ZM135.518 213.872L136.143 214.653C137.932 213.221 138.869 210.904 139.138 207.947L138.142 207.856L137.146 207.765C136.903 210.44 136.09 212.134 134.893 213.091L135.518 213.872ZM138.142 207.856L139.138 207.943C139.227 206.924 139.27 205.72 139.27 204.336H138.27H137.27C137.27 205.683 137.228 206.825 137.146 207.769L138.142 207.856ZM138.27 204.336L139.27 204.366C139.313 202.938 139.313 201.531 139.27 200.145L138.27 200.176L137.27 200.207C137.312 201.551 137.313 202.918 137.27 204.306L138.27 204.336ZM138.27 200.176H139.27C139.27 198.75 139.227 197.525 139.138 196.505L138.142 196.592L137.146 196.679C137.228 197.622 137.27 198.786 137.27 200.176H138.27ZM138.142 196.592V195.592H131.102V196.592V197.592H138.142V196.592ZM131.102 196.592H132.102V179.952H131.102H130.102V196.592H131.102ZM131.102 179.952V180.952H156.83V179.952V178.952H131.102V179.952ZM156.83 179.952L155.832 180.007C156.043 183.865 156.129 188.11 156.086 192.743L157.086 192.752L158.086 192.761C158.129 188.093 158.043 183.805 157.828 179.897L156.83 179.952ZM157.086 192.752L156.086 192.743C156.043 197.338 155.916 201.59 155.703 205.498L156.702 205.552L157.701 205.606C157.915 201.664 158.043 197.382 158.086 192.761L157.086 192.752ZM156.702 205.552L155.703 205.506C155.282 214.6 152.91 220.875 148.8 224.586L149.47 225.328L150.14 226.07C154.819 221.845 157.269 214.936 157.701 205.598L156.702 205.552ZM149.47 225.328L148.796 224.589C144.714 228.311 138.041 230.28 128.542 230.28V231.28V232.28C138.243 232.28 145.522 230.281 150.144 226.067L149.47 225.328ZM168.025 230H167.025V231H168.025V230ZM168.025 127.6V126.6H167.025V127.6H168.025ZM214.873 127.6H215.873V126.6H214.873V127.6ZM214.873 144.496V145.496H215.873V144.496H214.873ZM187.225 144.496V143.496H186.225V144.496H187.225ZM187.225 169.456H186.225V170.456H187.225V169.456ZM213.593 169.456H214.593V168.456H213.593V169.456ZM213.593 186.352V187.352H214.593V186.352H213.593ZM187.225 186.352V185.352H186.225V186.352H187.225ZM187.225 213.104H186.225V214.104H187.225V213.104ZM214.873 213.104H215.873V212.104H214.873V213.104ZM214.873 230V231H215.873V230H214.873ZM168.025 230H169.025V127.6H168.025H167.025V230H168.025ZM168.025 127.6V128.6H214.873V127.6V126.6H168.025V127.6ZM214.873 127.6H213.873V144.496H214.873H215.873V127.6H214.873ZM214.873 144.496V143.496H187.225V144.496V145.496H214.873V144.496ZM187.225 144.496H186.225V169.456H187.225H188.225V144.496H187.225ZM187.225 169.456V170.456H213.593V169.456V168.456H187.225V169.456ZM213.593 169.456H212.593V186.352H213.593H214.593V169.456H213.593ZM213.593 186.352V185.352H187.225V186.352V187.352H213.593V186.352ZM187.225 186.352H186.225V213.104H187.225H188.225V186.352H187.225ZM187.225 213.104V214.104H214.873V213.104V212.104H187.225V213.104ZM214.873 213.104H213.873V230H214.873H215.873V213.104H214.873ZM214.873 230V229H168.025V230V231H214.873V230ZM224.9 230H223.9V231H224.9V230ZM224.9 127.6V126.6H223.9V127.6H224.9ZM256.516 127.6L257.489 127.371L257.308 126.6H256.516V127.6ZM264.196 160.24L265.187 160.108L265.181 160.059L265.169 160.011L264.196 160.24ZM271.236 213.104L270.245 213.236L270.36 214.104H271.236V213.104ZM277.124 213.104V214.104H278.214L278.12 213.018L277.124 213.104ZM273.54 171.504L272.541 171.539L272.542 171.564L272.544 171.59L273.54 171.504ZM272.004 127.6V126.6H270.968L271.005 127.635L272.004 127.6ZM291.332 127.6H292.332V126.6H291.332V127.6ZM291.332 230V231H292.332V230H291.332ZM258.18 230L257.205 230.223L257.383 231H258.18V230ZM250.5 196.464L249.505 196.564L249.511 196.626L249.525 196.687L250.5 196.464ZM245.252 144.368L246.247 144.268L246.156 143.368H245.252V144.368ZM239.108 144.368V143.368H238.034L238.111 144.44L239.108 144.368ZM242.436 190.704L243.435 190.662L243.434 190.647L243.433 190.632L242.436 190.704ZM244.1 230V231H245.143L245.099 229.958L244.1 230ZM224.9 230H225.9V127.6H224.9H223.9V230H224.9ZM224.9 127.6V128.6H256.516V127.6V126.6H224.9V127.6ZM256.516 127.6L255.543 127.829L263.223 160.469L264.196 160.24L265.169 160.011L257.489 127.371L256.516 127.6ZM264.196 160.24L263.205 160.372L270.245 213.236L271.236 213.104L272.227 212.972L265.187 160.108L264.196 160.24ZM271.236 213.104V214.104H277.124V213.104V212.104H271.236V213.104ZM277.124 213.104L278.12 213.018L274.536 171.418L273.54 171.504L272.544 171.59L276.128 213.19L277.124 213.104ZM273.54 171.504L274.539 171.469L273.003 127.565L272.004 127.6L271.005 127.635L272.541 171.539L273.54 171.504ZM272.004 127.6V128.6H291.332V127.6V126.6H272.004V127.6ZM291.332 127.6H290.332V230H291.332H292.332V127.6H291.332ZM291.332 230V229H258.18V230V231H291.332V230ZM258.18 230L259.155 229.777L251.475 196.241L250.5 196.464L249.525 196.687L257.205 230.223L258.18 230ZM250.5 196.464L251.495 196.364L246.247 144.268L245.252 144.368L244.257 144.468L249.505 196.564L250.5 196.464ZM245.252 144.368V143.368H239.108V144.368V145.368H245.252V144.368ZM239.108 144.368L238.111 144.44L241.439 190.776L242.436 190.704L243.433 190.632L240.105 144.296L239.108 144.368ZM242.436 190.704L241.437 190.746L243.101 230.042L244.1 230L245.099 229.958L243.435 190.662L242.436 190.704ZM244.1 230V229H224.9V230V231H244.1V230ZM309.974 225.328L309.3 226.067L309.304 226.07L309.974 225.328ZM303.126 205.552L302.126 205.57L302.126 205.575L303.126 205.552ZM302.934 191.792L301.934 191.802L301.934 191.802L302.934 191.792ZM302.934 165.68L301.934 165.67L301.934 165.67L302.934 165.68ZM303.126 151.792L304.126 151.81L304.126 151.806L303.126 151.792ZM310.102 132.464L310.769 133.209L310.77 133.208L310.102 132.464ZM352.214 132.592L351.528 133.32L351.532 133.323L352.214 132.592ZM359.318 151.92L358.318 151.949L358.318 151.95L359.318 151.92ZM359.318 161.456L360.318 161.482L360.318 161.482L359.318 161.456ZM359.19 166V167H360.16L360.19 166.03L359.19 166ZM339.99 166L338.99 165.973L338.963 167H339.99V166ZM340.118 161.072L341.118 161.097L341.118 161.096L340.118 161.072ZM340.118 150.896L339.118 150.909L339.118 150.923L340.118 150.896ZM338.006 144.048L337.288 144.744L337.293 144.75L337.299 144.755L338.006 144.048ZM324.566 144.048L325.262 144.766L325.262 144.766L324.566 144.048ZM322.326 150.896L323.326 150.923L323.326 150.923L322.326 150.896ZM322.006 164.912L321.006 164.894L321.006 164.903L322.006 164.912ZM322.006 192.624L321.006 192.633L321.006 192.643L322.006 192.624ZM322.326 206.576L323.326 206.55L323.326 206.549L322.326 206.576ZM324.566 213.552L323.859 214.259L323.864 214.264L323.87 214.27L324.566 213.552ZM338.326 213.552L337.619 212.845L337.619 212.845L338.326 213.552ZM340.63 206.576L339.631 206.53L339.631 206.537L340.63 206.576ZM340.758 201.52L339.758 201.492L339.758 201.506V201.52H340.758ZM340.758 196.848H339.758V196.862L339.758 196.875L340.758 196.848ZM340.63 191.6V190.6H339.585L339.631 191.644L340.63 191.6ZM359.83 191.6L360.829 191.558L360.789 190.6H359.83V191.6ZM359.83 205.552L358.831 205.51L358.83 205.524L359.83 205.552ZM352.854 225.328L352.184 224.586L352.18 224.589L352.854 225.328ZM331.414 231.28V230.28C321.608 230.28 314.766 228.307 310.644 224.586L309.974 225.328L309.304 226.07C313.972 230.285 321.423 232.28 331.414 232.28V231.28ZM309.974 225.328L310.648 224.589C306.587 220.887 304.336 214.623 304.126 205.529L303.126 205.552L302.126 205.575C302.342 214.913 304.657 221.833 309.3 226.067L309.974 225.328ZM303.126 205.552L304.126 205.534C304.041 200.758 303.977 196.174 303.934 191.782L302.934 191.792L301.934 191.802C301.977 196.199 302.041 200.789 302.126 205.57L303.126 205.552ZM302.934 191.792L303.934 191.782C303.891 187.391 303.87 183.063 303.87 178.8H302.87H301.87C301.87 183.07 301.891 187.404 301.934 191.802L302.934 191.792ZM302.87 178.8H303.87C303.87 174.494 303.891 170.124 303.934 165.69L302.934 165.68L301.934 165.67C301.891 170.111 301.87 174.487 301.87 178.8H302.87ZM302.934 165.68L303.934 165.69C303.977 161.255 304.041 156.629 304.126 151.81L303.126 151.792L302.126 151.774C302.041 156.598 301.977 161.23 301.934 165.67L302.934 165.68ZM303.126 151.792L304.126 151.806C304.252 143.125 306.534 137.004 310.769 133.209L310.102 132.464L309.435 131.719C304.625 136.03 302.256 142.795 302.126 151.778L303.126 151.792ZM310.102 132.464L310.77 133.208C315.072 129.349 321.883 127.32 331.414 127.32V126.32V125.32C321.659 125.32 314.263 127.387 309.434 131.72L310.102 132.464ZM331.414 126.32V127.32C340.723 127.32 347.356 129.388 351.528 133.32L352.214 132.592L352.9 131.864C348.198 127.433 340.963 125.32 331.414 125.32V126.32ZM352.214 132.592L351.532 133.323C355.747 137.257 358.067 143.399 358.318 151.949L359.318 151.92L360.318 151.891C360.057 143.033 357.641 136.29 352.896 131.861L352.214 132.592ZM359.318 151.92L358.318 151.95C358.361 153.347 358.382 154.872 358.382 156.528H359.382H360.382C360.382 154.856 360.361 153.309 360.318 151.89L359.318 151.92ZM359.382 156.528H358.382C358.382 158.141 358.361 159.775 358.318 161.43L359.318 161.456L360.318 161.482C360.361 159.809 360.382 158.158 360.382 156.528H359.382ZM359.318 161.456L358.318 161.43C358.276 163.05 358.233 164.563 358.19 165.97L359.19 166L360.19 166.03C360.232 164.621 360.275 163.105 360.318 161.482L359.318 161.456ZM359.19 166V165H339.99V166V167H359.19V166ZM339.99 166L340.99 166.027C341.032 164.448 341.075 162.804 341.118 161.097L340.118 161.072L339.118 161.047C339.076 162.753 339.033 164.395 338.99 165.973L339.99 166ZM340.118 161.072L341.118 161.096C341.161 159.339 341.182 157.603 341.182 155.888H340.182H339.182C339.182 157.586 339.161 159.306 339.118 161.048L340.118 161.072ZM340.182 155.888H341.182C341.182 154.131 341.161 152.458 341.118 150.869L340.118 150.896L339.118 150.923C339.161 152.492 339.182 154.147 339.182 155.888H340.182ZM340.118 150.896L341.118 150.883C341.074 147.584 340.352 144.98 338.713 143.341L338.006 144.048L337.299 144.755C338.391 145.847 339.077 147.808 339.118 150.909L340.118 150.896ZM338.006 144.048L338.724 143.352C337.089 141.666 334.569 140.936 331.414 140.936V141.936V142.936C334.317 142.936 336.192 143.614 337.288 144.744L338.006 144.048ZM331.414 141.936V140.936C328.176 140.936 325.586 141.664 323.87 143.33L324.566 144.048L325.262 144.766C326.447 143.616 328.423 142.936 331.414 142.936V141.936ZM324.566 144.048L323.87 143.33C322.186 144.963 321.414 147.565 321.326 150.869L322.326 150.896L323.326 150.923C323.408 147.827 324.13 145.863 325.262 144.766L324.566 144.048ZM322.326 150.896L321.326 150.869C321.198 155.565 321.092 160.24 321.006 164.894L322.006 164.912L323.006 164.93C323.091 160.283 323.198 155.614 323.326 150.923L322.326 150.896ZM322.006 164.912L321.006 164.903C320.963 169.557 320.942 174.189 320.942 178.8H321.942H322.942C322.942 174.195 322.963 169.569 323.006 164.921L322.006 164.912ZM321.942 178.8H320.942C320.942 183.411 320.963 188.022 321.006 192.633L322.006 192.624L323.006 192.615C322.963 188.01 322.942 183.405 322.942 178.8H321.942ZM322.006 192.624L321.006 192.643C321.092 197.253 321.198 201.907 321.326 206.603L322.326 206.576L323.326 206.549C323.198 201.858 323.091 197.211 323.006 192.605L322.006 192.624ZM322.326 206.576L321.326 206.602C321.414 209.948 322.185 212.585 323.859 214.259L324.566 213.552L325.273 212.845C324.131 211.703 323.408 209.689 323.326 206.55L322.326 206.576ZM324.566 213.552L323.87 214.27C325.586 215.936 328.176 216.664 331.414 216.664V215.664V214.664C328.423 214.664 326.447 213.984 325.262 212.834L324.566 213.552ZM331.414 215.664V216.664C334.725 216.664 337.351 215.941 339.033 214.259L338.326 213.552L337.619 212.845C336.485 213.979 334.503 214.664 331.414 214.664V215.664ZM338.326 213.552L339.033 214.259C340.702 212.59 341.497 209.96 341.629 206.615L340.63 206.576L339.631 206.537C339.507 209.677 338.766 211.698 337.619 212.845L338.326 213.552ZM340.63 206.576L341.629 206.622C341.715 204.775 341.758 203.074 341.758 201.52H340.758H339.758C339.758 203.038 339.716 204.707 339.631 206.53L340.63 206.576ZM340.758 201.52L341.758 201.548C341.801 199.993 341.801 198.417 341.758 196.821L340.758 196.848L339.758 196.875C339.801 198.436 339.801 199.975 339.758 201.492L340.758 201.52ZM340.758 196.848H341.758C341.758 195.252 341.715 193.487 341.629 191.556L340.63 191.6L339.631 191.644C339.716 193.553 339.758 195.287 339.758 196.848H340.758ZM340.63 191.6V192.6H359.83V191.6V190.6H340.63V191.6ZM359.83 191.6L358.831 191.642C358.915 193.673 358.958 195.984 358.958 198.576H359.958H360.958C360.958 195.963 360.915 193.623 360.829 191.558L359.83 191.6ZM359.958 198.576H358.958C358.958 201.168 358.915 203.479 358.831 205.51L359.83 205.552L360.829 205.594C360.915 203.529 360.958 201.189 360.958 198.576H359.958ZM359.83 205.552L358.83 205.524C358.578 214.616 356.287 220.881 352.184 224.586L352.854 225.328L353.524 226.07C358.211 221.839 360.57 214.92 360.83 205.58L359.83 205.552ZM352.854 225.328L352.18 224.589C348.103 228.306 341.265 230.28 331.414 230.28V231.28V232.28C341.445 232.28 348.901 230.286 353.528 226.067L352.854 225.328ZM383.971 230H382.971V231H383.971V230ZM383.971 197.36H384.971V196.36H383.971V197.36ZM381.923 197.36L380.952 197.599L381.139 198.36H381.923V197.36ZM364.771 127.6V126.6H363.495L363.8 127.839L364.771 127.6ZM384.355 127.6L385.331 127.384L385.158 126.6H384.355V127.6ZM389.859 152.432L390.857 152.368L390.852 152.291L390.835 152.216L389.859 152.432ZM391.779 182.512L390.781 182.576L390.841 183.512H391.779V182.512ZM395.363 182.512V183.512H396.301L396.361 182.576L395.363 182.512ZM397.283 152.432L396.307 152.216L396.29 152.291L396.285 152.368L397.283 152.432ZM402.787 127.6V126.6H401.984L401.811 127.384L402.787 127.6ZM422.371 127.6L423.342 127.84L423.649 126.6H422.371V127.6ZM405.091 197.36V198.36H405.874L406.062 197.6L405.091 197.36ZM403.171 197.36V196.36H402.171V197.36H403.171ZM403.171 230V231H404.171V230H403.171ZM383.971 230H384.971V197.36H383.971H382.971V230H383.971ZM383.971 197.36V196.36H381.923V197.36V198.36H383.971V197.36ZM381.923 197.36L382.894 197.121L365.742 127.361L364.771 127.6L363.8 127.839L380.952 197.599L381.923 197.36ZM364.771 127.6V128.6H384.355V127.6V126.6H364.771V127.6ZM384.355 127.6L383.379 127.816L388.883 152.648L389.859 152.432L390.835 152.216L385.331 127.384L384.355 127.6ZM389.859 152.432L388.861 152.496L390.781 182.576L391.779 182.512L392.777 182.448L390.857 152.368L389.859 152.432ZM391.779 182.512V183.512H395.363V182.512V181.512H391.779V182.512ZM395.363 182.512L396.361 182.576L398.281 152.496L397.283 152.432L396.285 152.368L394.365 182.448L395.363 182.512ZM397.283 152.432L398.259 152.648L403.763 127.816L402.787 127.6L401.811 127.384L396.307 152.216L397.283 152.432ZM402.787 127.6V128.6H422.371V127.6V126.6H402.787V127.6ZM422.371 127.6L421.4 127.36L404.12 197.12L405.091 197.36L406.062 197.6L423.342 127.84L422.371 127.6ZM405.091 197.36V196.36H403.171V197.36V198.36H405.091V197.36ZM403.171 197.36H402.171V230H403.171H404.171V197.36H403.171ZM403.171 230V229H383.971V230V231H403.171V230Z" fill="#CAFA08" mask="url(#path-1-outside-1_31_2)"/>
</svg>
