<svg width="467" height="245" viewBox="0 0 467 245" fill="none" xmlns="http://www.w3.org/2000/svg">
<mask id="path-1-outside-1_31_2" maskUnits="userSpaceOnUse" x="0" y="0" width="467" height="245" fill="black">
<rect fill="white" width="467" height="245"/>
<path d="M36.3515 112.28C26.4528 112.28 19.3062 110.296 14.9115 106.328C10.5595 102.36 8.27683 95.768 8.0635 86.552C7.97817 81.7733 7.91417 77.1867 7.8715 72.792C7.82883 68.3973 7.8075 64.0667 7.8075 59.8C7.8075 55.4907 7.82883 51.1173 7.8715 46.68C7.91417 42.2427 7.97817 37.6133 8.0635 32.792C8.1915 23.96 10.5168 17.5173 15.0395 13.464C19.6048 9.36799 26.7088 7.31999 36.3515 7.31999C45.7808 7.31999 52.7142 9.41066 57.1515 13.592C61.6315 17.7733 63.9995 24.216 64.2555 32.92C64.2982 34.328 64.3195 35.864 64.3195 37.528C64.3195 39.1493 64.2982 40.792 64.2555 42.456C64.2128 44.0773 64.1702 45.592 64.1275 47H44.9275C44.9702 45.4213 45.0128 43.7787 45.0555 42.072C45.0982 40.3227 45.1195 38.5947 45.1195 36.888C45.1195 35.1387 45.0982 33.4747 45.0555 31.896C45.0128 28.696 44.3088 26.4133 42.9435 25.048C41.5782 23.64 39.3808 22.936 36.3515 22.936C33.2368 22.936 30.9542 23.64 29.5035 25.048C28.0955 26.4133 27.3488 28.696 27.2635 31.896C27.1355 36.5893 27.0288 41.2613 26.9435 45.912C26.9008 50.5627 26.8795 55.192 26.8795 59.8C26.8795 64.408 26.9008 69.016 26.9435 73.624C27.0288 78.232 27.1355 82.8827 27.2635 87.576C27.3488 90.8187 28.0955 93.144 29.5035 94.552C30.9542 95.96 33.2368 96.664 36.3515 96.664C39.5515 96.664 41.8555 95.96 43.2635 94.552C44.6715 93.144 45.4395 90.8187 45.5675 87.576C45.6528 85.7413 45.6955 84.056 45.6955 82.52C45.7382 80.984 45.7382 79.4267 45.6955 77.848C45.6955 76.2693 45.6528 74.52 45.5675 72.6H64.7675C64.8528 74.648 64.8955 76.9733 64.8955 79.576C64.8955 82.1787 64.8528 84.504 64.7675 86.552C64.5115 95.768 62.1862 102.36 57.7915 106.328C53.4395 110.296 46.2928 112.28 36.3515 112.28ZM75.2125 111V8.6H101.197C110.754 8.6 117.645 10.5413 121.869 14.424C126.135 18.264 128.418 24.6427 128.717 33.56C128.802 35.9493 128.845 38.04 128.845 39.832C128.887 41.624 128.887 43.416 128.845 45.208C128.845 47 128.802 49.0907 128.717 51.48C128.546 57.0267 127.607 61.5707 125.901 65.112C124.237 68.6533 121.634 71.3627 118.093 73.24L130.125 111H109.773L100.045 76.44H94.4125V111H75.2125ZM94.4125 59.544H101.197C103.885 59.544 105.911 58.9253 107.277 57.688C108.642 56.4507 109.389 54.7227 109.517 52.504C109.645 50.4133 109.73 48.2373 109.773 45.976C109.815 43.672 109.815 41.3893 109.773 39.128C109.73 36.824 109.645 34.6267 109.517 32.536C109.389 30.2747 108.642 28.5467 107.277 27.352C105.911 26.1147 103.885 25.496 101.197 25.496H94.4125V59.544ZM140.088 111V8.6H186.936V25.496H159.288V50.456H185.656V67.352H159.288V94.104H186.936V111H140.088ZM192.867 111L207.075 8.6H239.843L254.051 111H234.339L232.163 89.624H214.755L212.579 111H192.867ZM216.547 72.728H230.371L228.067 50.072L226.531 25.496H220.387L218.851 50.072L216.547 72.728ZM269.806 111V25.496H252.078V8.6H306.734V25.496H289.006V111H269.806ZM313.713 111V8.6H332.913V111H313.713ZM356.081 111L341.233 8.6H361.073L368.625 59.928L369.777 94.104H375.921L377.073 59.928L384.625 8.6H404.465L389.617 111H356.081ZM412.838 111V8.6H459.686V25.496H432.038V50.456H458.406V67.352H432.038V94.104H459.686V111H412.838ZM39.054 236L53.262 133.6H86.03L100.238 236H80.526L78.35 214.624H60.942L58.766 236H39.054ZM62.734 197.728H76.558L74.254 175.072L72.718 150.496H66.574L65.038 175.072L62.734 197.728ZM134.542 237.28C128.014 237.28 122.702 236.427 118.606 234.72C114.553 232.971 111.523 230.219 109.518 226.464C107.555 222.667 106.467 217.696 106.254 211.552C106.126 207.968 106.019 203.893 105.934 199.328C105.891 194.72 105.87 189.984 105.87 185.12C105.87 180.256 105.891 175.563 105.934 171.04C106.019 166.517 106.126 162.528 106.254 159.072C106.51 152.715 107.619 147.573 109.582 143.648C111.587 139.723 114.617 136.864 118.67 135.072C122.766 133.237 128.057 132.32 134.542 132.32C143.971 132.32 150.841 134.304 155.15 138.272C159.459 142.197 161.891 148.747 162.446 157.92C162.574 159.883 162.638 162.229 162.638 164.96C162.638 167.648 162.574 169.995 162.446 172H143.246C143.374 169.184 143.438 166.453 143.438 163.808C143.438 161.163 143.374 158.432 143.246 155.616C143.075 152.843 142.307 150.88 140.942 149.728C139.619 148.533 137.486 147.936 134.542 147.936C131.47 147.936 129.23 148.533 127.822 149.728C126.457 150.88 125.667 152.843 125.454 155.616C125.198 160.096 125.006 164.811 124.878 169.76C124.75 174.667 124.686 179.659 124.686 184.736C124.686 189.813 124.75 194.827 124.878 199.776C125.006 204.683 125.198 209.376 125.454 213.856C125.667 216.672 126.457 218.677 127.822 219.872C129.23 221.067 131.47 221.664 134.542 221.664C137.742 221.664 140.067 221.067 141.518 219.872C143.011 218.677 143.886 216.672 144.142 213.856C144.227 212.875 144.27 211.701 144.27 210.336C144.313 208.928 144.313 207.541 144.27 206.176C144.27 204.768 144.227 203.573 144.142 202.592H137.102V185.952H162.83C163.043 189.835 163.129 194.101 163.086 198.752C163.043 203.36 162.915 207.627 162.702 211.552C162.275 220.768 159.865 227.36 155.47 231.328C151.118 235.296 144.142 237.28 134.542 237.28ZM174.025 236V133.6H220.873V150.496H193.225V175.456H219.593V192.352H193.225V219.104H220.873V236H174.025ZM230.9 236V133.6H262.516L270.196 166.24L277.236 219.104H283.124L279.54 177.504L278.004 133.6H297.332V236H264.18L256.5 202.464L251.252 150.368H245.108L248.436 196.704L250.1 236H230.9ZM337.414 237.28C327.515 237.28 320.369 235.296 315.974 231.328C311.622 227.36 309.339 220.768 309.126 211.552C309.041 206.773 308.977 202.187 308.934 197.792C308.891 193.397 308.87 189.067 308.87 184.8C308.87 180.491 308.891 176.117 308.934 171.68C308.977 167.243 309.041 162.613 309.126 157.792C309.254 148.96 311.579 142.517 316.102 138.464C320.667 134.368 327.771 132.32 337.414 132.32C346.843 132.32 353.777 134.411 358.214 138.592C362.694 142.773 365.062 149.216 365.318 157.92C365.361 159.328 365.382 160.864 365.382 162.528C365.382 164.149 365.361 165.792 365.318 167.456C365.275 169.077 365.233 170.592 365.19 172H345.99C346.033 170.421 346.075 168.779 346.118 167.072C346.161 165.323 346.182 163.595 346.182 161.888C346.182 160.139 346.161 158.475 346.118 156.896C346.075 153.696 345.371 151.413 344.006 150.048C342.641 148.64 340.443 147.936 337.414 147.936C334.299 147.936 332.017 148.64 330.566 150.048C329.158 151.413 328.411 153.696 328.326 156.896C328.198 161.589 328.091 166.261 328.006 170.912C327.963 175.563 327.942 180.192 327.942 184.8C327.942 189.408 327.963 194.016 328.006 198.624C328.091 203.232 328.198 207.883 328.326 212.576C328.411 215.819 329.158 218.144 330.566 219.552C332.017 220.96 334.299 221.664 337.414 221.664C340.614 221.664 342.918 220.96 344.326 219.552C345.734 218.144 346.502 215.819 346.63 212.576C346.715 210.741 346.758 209.056 346.758 207.52C346.801 205.984 346.801 204.427 346.758 202.848C346.758 201.269 346.715 199.52 346.63 197.6H365.83C365.915 199.648 365.958 201.973 365.958 204.576C365.958 207.179 365.915 209.504 365.83 211.552C365.574 220.768 363.249 227.36 358.854 231.328C354.502 235.296 347.355 237.28 337.414 237.28ZM389.971 236V203.36H387.923L370.771 133.6H390.355L395.859 158.432L397.779 188.512H401.363L403.283 158.432L408.787 133.6H428.371L411.091 203.36H409.171V236H389.971Z"/>
</mask>
<path d="M14.9115 106.328L10.1952 111.501L10.2078 111.512L10.2204 111.524L14.9115 106.328ZM8.0635 86.552L1.06462 86.677L1.06495 86.6955L1.06538 86.714L8.0635 86.552ZM7.8715 72.792L0.87183 72.86L0.87183 72.86L7.8715 72.792ZM7.8715 46.68L0.871824 46.6127L0.871824 46.6127L7.8715 46.68ZM8.0635 32.792L15.0624 32.9159L15.0626 32.9047L15.0628 32.8934L8.0635 32.792ZM15.0395 13.464L19.7114 18.6768L19.7142 18.6743L15.0395 13.464ZM57.1515 13.592L52.3509 18.6865L52.3631 18.698L52.3753 18.7094L57.1515 13.592ZM64.2555 32.92L57.2585 33.1258L57.2587 33.132L64.2555 32.92ZM64.2555 42.456L71.2531 42.6401L71.2532 42.6354L64.2555 42.456ZM64.1275 47V54H70.9186L71.1243 47.212L64.1275 47ZM44.9275 47L37.9301 46.8109L37.7358 54H44.9275V47ZM45.0555 42.072L52.0533 42.247L52.0534 42.2427L45.0555 42.072ZM45.0555 31.896L38.0561 31.9893L38.0568 32.0372L38.0581 32.0851L45.0555 31.896ZM42.9435 25.048L37.9182 29.921L37.9557 29.9597L37.9938 29.9977L42.9435 25.048ZM29.5035 25.048L34.3765 30.0733L34.3788 30.0711L29.5035 25.048ZM27.2635 31.896L34.2609 32.0868L34.261 32.0826L27.2635 31.896ZM26.9435 45.912L19.9447 45.7836L19.9441 45.8157L19.9438 45.8478L26.9435 45.912ZM26.9435 73.624L19.9438 73.6888L19.9441 73.7212L19.9447 73.7536L26.9435 73.624ZM27.2635 87.576L34.2611 87.3919L34.2609 87.3852L27.2635 87.576ZM29.5035 94.552L24.5538 99.5017L24.5907 99.5387L24.6282 99.5751L29.5035 94.552ZM43.2635 94.552L38.3138 89.6023L38.3138 89.6023L43.2635 94.552ZM45.5675 87.576L38.5751 87.2508L38.5739 87.2753L38.5729 87.2999L45.5675 87.576ZM45.6955 82.52L38.6982 82.3256L38.6955 82.4228V82.52H45.6955ZM45.6955 77.848H38.6955V77.9426L38.6981 78.0371L45.6955 77.848ZM45.5675 72.6V65.6H38.2495L38.5744 72.9108L45.5675 72.6ZM64.7675 72.6L71.7614 72.3086L71.4819 65.6H64.7675V72.6ZM64.7675 86.552L57.7736 86.2606L57.7715 86.3091L57.7702 86.3576L64.7675 86.552ZM57.7915 106.328L53.1004 101.132L53.0878 101.144L53.0752 101.155L57.7915 106.328ZM36.3515 112.28V105.28C27.1026 105.28 22.086 103.375 19.6026 101.132L14.9115 106.328L10.2204 111.524C16.5264 117.217 25.8031 119.28 36.3515 119.28V112.28ZM14.9115 106.328L19.6278 101.155C17.3154 99.047 15.2552 94.7512 15.0616 86.39L8.0635 86.552L1.06538 86.714C1.29849 96.7848 3.80358 105.673 10.1952 111.501L14.9115 106.328ZM8.0635 86.552L15.0624 86.427C14.9774 81.6657 14.9136 77.0981 14.8712 72.724L7.8715 72.792L0.87183 72.86C0.914696 77.2752 0.978972 81.8809 1.06462 86.677L8.0635 86.552ZM7.8715 72.792L14.8712 72.724C14.8287 68.3513 14.8075 64.0433 14.8075 59.8H7.8075H0.8075C0.8075 64.09 0.82895 68.4433 0.87183 72.86L7.8715 72.792ZM7.8075 59.8H14.8075C14.8075 55.5138 14.8287 51.1629 14.8712 46.7473L7.8715 46.68L0.871824 46.6127C0.828948 51.0718 0.8075 55.4676 0.8075 59.8H7.8075ZM7.8715 46.68L14.8712 46.7473C14.9136 42.3304 14.9774 37.7199 15.0624 32.9159L8.0635 32.792L1.0646 32.6681C0.978958 37.5067 0.914686 42.155 0.871824 46.6127L7.8715 46.68ZM8.0635 32.792L15.0628 32.8934C15.1755 25.1159 17.2005 20.9271 19.7114 18.6768L15.0395 13.464L10.3676 8.25117C3.83316 14.1075 1.20752 22.804 1.06424 32.6906L8.0635 32.792ZM15.0395 13.464L19.7142 18.6743C22.434 16.2341 27.4922 14.32 36.3515 14.32V7.31999V0.319992C25.9254 0.319992 16.7757 2.5019 10.3648 8.25368L15.0395 13.464ZM36.3515 7.31999V14.32C44.9399 14.32 49.7663 16.251 52.3509 18.6865L57.1515 13.592L61.9521 8.49747C55.6621 2.57033 46.6218 0.319992 36.3515 0.319992V7.31999ZM57.1515 13.592L52.3753 18.7094C55.0006 21.1597 57.0341 25.4949 57.2585 33.1258L64.2555 32.92L71.2525 32.7142C70.9649 22.9371 68.2624 14.3869 61.9277 8.47461L57.1515 13.592ZM64.2555 32.92L57.2587 33.132C57.2989 34.4581 57.3195 35.9224 57.3195 37.528H64.3195H71.3195C71.3195 35.8056 71.2974 34.1979 71.2523 32.708L64.2555 32.92ZM64.3195 37.528H57.3195C57.3195 39.088 57.299 40.6708 57.2578 42.2766L64.2555 42.456L71.2532 42.6354C71.2974 40.9132 71.3195 39.2107 71.3195 37.528H64.3195ZM64.2555 42.456L57.2579 42.2718C57.2155 43.8852 57.1731 45.3905 57.1307 46.788L64.1275 47L71.1243 47.212C71.1673 45.7935 71.2102 44.2694 71.2531 42.6401L64.2555 42.456ZM64.1275 47V40H44.9275V47V54H64.1275V47ZM44.9275 47L51.9249 47.1891C51.9677 45.6054 52.0105 43.958 52.0533 42.247L45.0555 42.072L38.0577 41.897C38.0151 43.5994 37.9726 45.2373 37.9301 46.8109L44.9275 47ZM45.0555 42.072L52.0534 42.2427C52.0974 40.4379 52.1195 38.653 52.1195 36.888H45.1195H38.1195C38.1195 38.5364 38.0989 40.2074 38.0576 41.9013L45.0555 42.072ZM45.1195 36.888H52.1195C52.1195 35.0822 52.0975 33.3548 52.0529 31.7069L45.0555 31.896L38.0581 32.0851C38.0989 33.5945 38.1195 35.1951 38.1195 36.888H45.1195ZM45.0555 31.896L52.0549 31.8027C52.003 27.9108 51.1732 23.3782 47.8932 20.0982L42.9435 25.048L37.9938 29.9977C37.7009 29.7049 37.712 29.5409 37.8064 29.847C37.9077 30.1754 38.0409 30.8461 38.0561 31.9893L45.0555 31.896ZM42.9435 25.048L47.9688 20.175C44.7166 16.8211 40.2628 15.936 36.3515 15.936V22.936V29.936C37.3544 29.936 37.9047 30.0562 38.1357 30.1302C38.332 30.1931 38.1671 30.1777 37.9182 29.921L42.9435 25.048ZM36.3515 22.936V15.936C32.3744 15.936 27.9404 16.8101 24.6282 20.0249L29.5035 25.048L34.3788 30.0711C34.1794 30.2646 34.09 30.2384 34.3665 30.1531C34.6721 30.0588 35.2935 29.936 36.3515 29.936V22.936ZM29.5035 25.048L24.6305 20.0227C21.2888 23.2631 20.3708 27.7802 20.266 31.7094L27.2635 31.896L34.261 32.0826C34.2912 30.9489 34.4343 30.2854 34.5406 29.9602C34.639 29.6596 34.6518 29.8063 34.3765 30.0733L29.5035 25.048ZM27.2635 31.896L20.2661 31.7052C20.1375 36.4191 20.0304 41.1119 19.9447 45.7836L26.9435 45.912L33.9423 46.0404C34.0273 41.4108 34.1335 36.7596 34.2609 32.0868L27.2635 31.896ZM26.9435 45.912L19.9438 45.8478C19.9009 50.5197 19.8795 55.1704 19.8795 59.8H26.8795H33.8795C33.8795 55.2136 33.9007 50.6057 33.9432 45.9762L26.9435 45.912ZM26.8795 59.8H19.8795C19.8795 64.4296 19.9009 69.0592 19.9438 73.6888L26.9435 73.624L33.9432 73.5592C33.9007 68.9728 33.8795 64.3864 33.8795 59.8H26.8795ZM26.9435 73.624L19.9447 73.7536C20.0304 78.3824 20.1376 83.0535 20.2661 87.7668L27.2635 87.576L34.2609 87.3852C34.1334 82.7119 34.0272 78.0816 33.9423 73.4944L26.9435 73.624ZM27.2635 87.576L20.2659 87.7601C20.3703 91.7267 21.2836 96.2316 24.5538 99.5017L29.5035 94.552L34.4532 89.6023C34.6947 89.8437 34.6613 89.9514 34.5523 89.6119C34.4363 89.2505 34.2916 88.5523 34.2611 87.3919L27.2635 87.576ZM29.5035 94.552L24.6282 99.5751C27.9404 102.79 32.3744 103.664 36.3515 103.664V96.664V89.664C35.2935 89.664 34.6721 89.5412 34.3665 89.4469C34.09 89.3616 34.1794 89.3354 34.3788 89.5289L29.5035 94.552ZM36.3515 96.664V103.664C40.3255 103.664 44.8863 102.829 48.2132 99.5017L43.2635 94.552L38.3138 89.6023C38.5738 89.3422 38.7178 89.3548 38.434 89.4415C38.1216 89.537 37.471 89.664 36.3515 89.664V96.664ZM43.2635 94.552L48.2132 99.5017C51.4486 96.2664 52.4059 91.8085 52.5621 87.8521L45.5675 87.576L38.5729 87.2999C38.5269 88.4666 38.3737 89.1782 38.2486 89.5567C38.1301 89.9157 38.0873 89.8287 38.3138 89.6023L43.2635 94.552ZM45.5675 87.576L52.5599 87.9012C52.6494 85.9784 52.6955 84.1829 52.6955 82.52H45.6955H38.6955C38.6955 83.9291 38.6563 85.5043 38.5751 87.2508L45.5675 87.576ZM45.6955 82.52L52.6928 82.7144C52.7391 81.0471 52.739 79.3618 52.6929 77.6589L45.6955 77.848L38.6981 78.0371C38.7374 79.4915 38.7372 80.9209 38.6982 82.3256L45.6955 82.52ZM45.6955 77.848H52.6955C52.6955 76.1464 52.6496 74.2914 52.5606 72.2892L45.5675 72.6L38.5744 72.9108C38.6561 74.7486 38.6955 76.3923 38.6955 77.848H45.6955ZM45.5675 72.6V79.6H64.7675V72.6V65.6H45.5675V72.6ZM64.7675 72.6L57.7736 72.8914C57.854 74.8206 57.8955 77.046 57.8955 79.576H64.8955H71.8955C71.8955 76.9006 71.8517 74.4754 71.7614 72.3086L64.7675 72.6ZM64.8955 79.576H57.8955C57.8955 82.106 57.854 84.3314 57.7736 86.2606L64.7675 86.552L71.7614 86.8434C71.8517 84.6766 71.8955 82.2514 71.8955 79.576H64.8955ZM64.7675 86.552L57.7702 86.3576C57.5383 94.7058 55.452 99.0092 53.1004 101.132L57.7915 106.328L62.4826 111.524C68.9204 105.711 71.4847 96.8302 71.7648 86.7464L64.7675 86.552ZM57.7915 106.328L53.0752 101.155C50.6494 103.367 45.6618 105.28 36.3515 105.28V112.28V119.28C46.9239 119.28 56.2296 117.225 62.5078 111.501L57.7915 106.328ZM75.2125 111H68.2125V118H75.2125V111ZM75.2125 8.6V1.6H68.2125V8.6H75.2125ZM121.869 14.424L117.131 19.5776L117.158 19.6025L117.186 19.6271L121.869 14.424ZM128.717 33.56L121.72 33.7943L121.721 33.8021L121.721 33.8098L128.717 33.56ZM128.845 39.832H121.845V39.9153L121.846 39.9986L128.845 39.832ZM128.845 45.208L121.846 45.0414L121.845 45.1247V45.208H128.845ZM128.717 51.48L121.721 51.2302L121.72 51.2474L121.72 51.2647L128.717 51.48ZM125.901 65.112L119.595 62.073L119.58 62.104L119.565 62.1351L125.901 65.112ZM118.093 73.24L114.814 67.0553L109.648 69.794L111.423 75.3652L118.093 73.24ZM130.125 111V118H139.702L136.794 108.875L130.125 111ZM109.773 111L103.034 112.897L104.471 118H109.773V111ZM100.045 76.44L106.783 74.5433L105.346 69.44H100.045V76.44ZM94.4125 76.44V69.44H87.4125V76.44H94.4125ZM94.4125 111V118H101.413V111H94.4125ZM94.4125 59.544H87.4125V66.544H94.4125V59.544ZM107.277 57.688L102.576 52.5011L102.576 52.5011L107.277 57.688ZM109.517 52.504L102.53 52.0762L102.529 52.0885L102.528 52.1008L109.517 52.504ZM109.773 45.976L116.771 46.108L116.771 46.1056L109.773 45.976ZM109.773 39.128L102.774 39.2576L102.774 39.26L109.773 39.128ZM109.517 32.536L102.528 32.9316L102.529 32.9477L102.53 32.9638L109.517 32.536ZM107.277 27.352L102.576 32.5389L102.621 32.5799L102.667 32.62L107.277 27.352ZM94.4125 25.496V18.496H87.4125V25.496H94.4125ZM75.2125 111H82.2125V8.6H75.2125H68.2125V111H75.2125ZM75.2125 8.6V15.6H101.197V8.6V1.6H75.2125V8.6ZM101.197 8.6V15.6C110.091 15.6 114.825 17.4574 117.131 19.5776L121.869 14.424L126.606 9.2704C120.464 3.62531 111.417 1.6 101.197 1.6V8.6ZM121.869 14.424L117.186 19.6271C119.42 21.6378 121.451 25.7459 121.72 33.7943L128.717 33.56L135.713 33.3257C135.385 23.5395 132.85 14.8902 126.551 9.22094L121.869 14.424ZM128.717 33.56L121.721 33.8098C121.804 36.1415 121.845 38.1454 121.845 39.832H128.845H135.845C135.845 37.9345 135.799 35.7572 135.712 33.3102L128.717 33.56ZM128.845 39.832L121.846 39.9986C121.887 41.6796 121.887 43.3604 121.846 45.0414L128.845 45.208L135.843 45.3746C135.888 43.4716 135.888 41.5684 135.843 39.6654L128.845 39.832ZM128.845 45.208H121.845C121.845 46.8945 121.804 48.8985 121.721 51.2302L128.717 51.48L135.712 51.7298C135.799 49.2828 135.845 47.1054 135.845 45.208H128.845ZM128.717 51.48L121.72 51.2647C121.568 56.2069 120.739 59.6989 119.595 62.073L125.901 65.112L132.206 68.151C134.476 63.4425 135.524 57.8464 135.713 51.6953L128.717 51.48ZM125.901 65.112L119.565 62.1351C118.562 64.2688 117.051 65.8694 114.814 67.0553L118.093 73.24L121.371 79.4247C126.217 76.8559 129.911 73.0379 132.236 68.0889L125.901 65.112ZM118.093 73.24L111.423 75.3652L123.455 113.125L130.125 111L136.794 108.875L124.762 71.1148L118.093 73.24ZM130.125 111V104H109.773V111V118H130.125V111ZM109.773 111L116.511 109.103L106.783 74.5433L100.045 76.44L93.3064 78.3367L103.034 112.897L109.773 111ZM100.045 76.44V69.44H94.4125V76.44V83.44H100.045V76.44ZM94.4125 76.44H87.4125V111H94.4125H101.413V76.44H94.4125ZM94.4125 111V104H75.2125V111V118H94.4125V111ZM94.4125 59.544V66.544H101.197V59.544V52.544H94.4125V59.544ZM101.197 59.544V66.544C104.837 66.544 108.842 65.7164 111.977 62.8749L107.277 57.688L102.576 52.5011C102.764 52.3309 102.864 52.3315 102.689 52.385C102.488 52.4463 102.024 52.544 101.197 52.544V59.544ZM107.277 57.688L111.977 62.8749C114.975 60.1581 116.294 56.5561 116.505 52.9072L109.517 52.504L102.528 52.1008C102.503 52.5366 102.43 52.6977 102.435 52.6874C102.437 52.6825 102.451 52.6513 102.483 52.6071C102.515 52.5625 102.549 52.5258 102.576 52.5011L107.277 57.688ZM109.517 52.504L116.503 52.9318C116.638 50.7352 116.727 48.4603 116.771 46.108L109.773 45.976L102.774 45.8439C102.733 48.0144 102.651 50.0915 102.53 52.0762L109.517 52.504ZM109.773 45.976L116.771 46.1056C116.816 43.716 116.816 41.3461 116.771 38.9959L109.773 39.128L102.774 39.26C102.815 41.4325 102.815 43.628 102.774 45.8464L109.773 45.976ZM109.773 39.128L116.771 38.9984C116.727 36.6046 116.638 34.3074 116.503 32.1082L109.517 32.536L102.53 32.9638C102.651 34.9459 102.733 37.0433 102.774 39.2576L109.773 39.128ZM109.517 32.536L116.505 32.1404C116.299 28.4958 115.001 24.8092 111.886 22.084L107.277 27.352L102.667 32.62C102.613 32.5729 102.558 32.5136 102.511 32.4479C102.464 32.3831 102.441 32.3352 102.435 32.3206C102.423 32.2943 102.501 32.4594 102.528 32.9316L109.517 32.536ZM107.277 27.352L111.977 22.1651C108.842 19.3236 104.837 18.496 101.197 18.496V25.496V32.496C102.024 32.496 102.488 32.5937 102.689 32.655C102.864 32.7085 102.764 32.7091 102.576 32.5389L107.277 27.352ZM101.197 25.496V18.496H94.4125V25.496V32.496H101.197V25.496ZM94.4125 25.496H87.4125V59.544H94.4125H101.413V25.496H94.4125ZM140.088 111H133.088V118H140.088V111ZM140.088 8.6V1.6H133.088V8.6H140.088ZM186.936 8.6H193.936V1.6H186.936V8.6ZM186.936 25.496V32.496H193.936V25.496H186.936ZM159.288 25.496V18.496H152.288V25.496H159.288ZM159.288 50.456H152.288V57.456H159.288V50.456ZM185.656 50.456H192.656V43.456H185.656V50.456ZM185.656 67.352V74.352H192.656V67.352H185.656ZM159.288 67.352V60.352H152.288V67.352H159.288ZM159.288 94.104H152.288V101.104H159.288V94.104ZM186.936 94.104H193.936V87.104H186.936V94.104ZM186.936 111V118H193.936V111H186.936ZM140.088 111H147.088V8.6H140.088H133.088V111H140.088ZM140.088 8.6V15.6H186.936V8.6V1.6H140.088V8.6ZM186.936 8.6H179.936V25.496H186.936H193.936V8.6H186.936ZM186.936 25.496V18.496H159.288V25.496V32.496H186.936V25.496ZM159.288 25.496H152.288V50.456H159.288H166.288V25.496H159.288ZM159.288 50.456V57.456H185.656V50.456V43.456H159.288V50.456ZM185.656 50.456H178.656V67.352H185.656H192.656V50.456H185.656ZM185.656 67.352V60.352H159.288V67.352V74.352H185.656V67.352ZM159.288 67.352H152.288V94.104H159.288H166.288V67.352H159.288ZM159.288 94.104V101.104H186.936V94.104V87.104H159.288V94.104ZM186.936 94.104H179.936V111H186.936H193.936V94.104H186.936ZM186.936 111V104H140.088V111V118H186.936V111ZM192.867 111L185.933 110.038L184.828 118H192.867V111ZM207.075 8.6V1.6H200.979L200.141 7.63796L207.075 8.6ZM239.843 8.6L246.776 7.63796L245.938 1.6H239.843V8.6ZM254.051 111V118H262.089L260.984 110.038L254.051 111ZM234.339 111L227.374 111.709L228.015 118H234.339V111ZM232.163 89.624L239.127 88.9151L238.486 82.624H232.163V89.624ZM214.755 89.624V82.624H208.431L207.79 88.9151L214.755 89.624ZM212.579 111V118H218.902L219.543 111.709L212.579 111ZM216.547 72.728L209.582 72.0198L208.799 79.728H216.547V72.728ZM230.371 72.728V79.728H238.118L237.335 72.0198L230.371 72.728ZM228.067 50.072L221.08 50.5086L221.089 50.6446L221.102 50.7802L228.067 50.072ZM226.531 25.496L233.517 25.0593L233.107 18.496H226.531V25.496ZM220.387 25.496V18.496H213.81L213.4 25.0593L220.387 25.496ZM218.851 50.072L225.815 50.7802L225.828 50.6446L225.837 50.5086L218.851 50.072ZM192.867 111L199.8 111.962L214.008 9.56203L207.075 8.6L200.141 7.63796L185.933 110.038L192.867 111ZM207.075 8.6V15.6H239.843V8.6V1.6H207.075V8.6ZM239.843 8.6L232.909 9.56203L247.117 111.962L254.051 111L260.984 110.038L246.776 7.63796L239.843 8.6ZM254.051 111V104H234.339V111V118H254.051V111ZM234.339 111L241.303 110.291L239.127 88.9151L232.163 89.624L225.198 90.3329L227.374 111.709L234.339 111ZM232.163 89.624V82.624H214.755V89.624V96.624H232.163V89.624ZM214.755 89.624L207.79 88.9151L205.614 110.291L212.579 111L219.543 111.709L221.719 90.3329L214.755 89.624ZM212.579 111V104H192.867V111V118H212.579V111ZM216.547 72.728V79.728H230.371V72.728V65.728H216.547V72.728ZM230.371 72.728L237.335 72.0198L235.031 49.3638L228.067 50.072L221.102 50.7802L223.406 73.4362L230.371 72.728ZM228.067 50.072L235.053 49.6354L233.517 25.0593L226.531 25.496L219.544 25.9326L221.08 50.5086L228.067 50.072ZM226.531 25.496V18.496H220.387V25.496V32.496H226.531V25.496ZM220.387 25.496L213.4 25.0593L211.864 49.6354L218.851 50.072L225.837 50.5086L227.373 25.9326L220.387 25.496ZM218.851 50.072L211.886 49.3638L209.582 72.0198L216.547 72.728L223.511 73.4362L225.815 50.7802L218.851 50.072ZM269.806 111H262.806V118H269.806V111ZM269.806 25.496H276.806V18.496H269.806V25.496ZM252.078 25.496H245.078V32.496H252.078V25.496ZM252.078 8.6V1.6H245.078V8.6H252.078ZM306.734 8.6H313.734V1.6H306.734V8.6ZM306.734 25.496V32.496H313.734V25.496H306.734ZM289.006 25.496V18.496H282.006V25.496H289.006ZM289.006 111V118H296.006V111H289.006ZM269.806 111H276.806V25.496H269.806H262.806V111H269.806ZM269.806 25.496V18.496H252.078V25.496V32.496H269.806V25.496ZM252.078 25.496H259.078V8.6H252.078H245.078V25.496H252.078ZM252.078 8.6V15.6H306.734V8.6V1.6H252.078V8.6ZM306.734 8.6H299.734V25.496H306.734H313.734V8.6H306.734ZM306.734 25.496V18.496H289.006V25.496V32.496H306.734V25.496ZM289.006 25.496H282.006V111H289.006H296.006V25.496H289.006ZM289.006 111V104H269.806V111V118H289.006V111ZM313.713 111H306.713V118H313.713V111ZM313.713 8.6V1.6H306.713V8.6H313.713ZM332.913 8.6H339.913V1.6H332.913V8.6ZM332.913 111V118H339.913V111H332.913ZM313.713 111H320.713V8.6H313.713H306.713V111H313.713ZM313.713 8.6V15.6H332.913V8.6V1.6H313.713V8.6ZM332.913 8.6H325.913V111H332.913H339.913V8.6H332.913ZM332.913 111V104H313.713V111V118H332.913V111ZM356.081 111L349.153 112.004L350.022 118H356.081V111ZM341.233 8.6V1.6H333.144L334.305 9.60449L341.233 8.6ZM361.073 8.6L367.998 7.58104L367.118 1.6H361.073V8.6ZM368.625 59.928L375.621 59.6922L375.607 59.2986L375.55 58.909L368.625 59.928ZM369.777 94.104L362.78 94.3398L363.008 101.104H369.777V94.104ZM375.921 94.104V101.104H382.689L382.917 94.3398L375.921 94.104ZM377.073 59.928L370.147 58.909L370.09 59.2986L370.076 59.6922L377.073 59.928ZM384.625 8.6V1.6H378.579L377.699 7.58104L384.625 8.6ZM404.465 8.6L411.392 9.60449L412.553 1.6H404.465V8.6ZM389.617 111V118H395.675L396.544 112.004L389.617 111ZM356.081 111L363.008 109.996L348.16 7.5955L341.233 8.6L334.305 9.60449L349.153 112.004L356.081 111ZM341.233 8.6V15.6H361.073V8.6V1.6H341.233V8.6ZM361.073 8.6L354.147 9.61895L361.699 60.947L368.625 59.928L375.55 58.909L367.998 7.58104L361.073 8.6ZM368.625 59.928L361.628 60.1638L362.78 94.3398L369.777 94.104L376.773 93.8682L375.621 59.6922L368.625 59.928ZM369.777 94.104V101.104H375.921V94.104V87.104H369.777V94.104ZM375.921 94.104L382.917 94.3398L384.069 60.1638L377.073 59.928L370.076 59.6922L368.924 93.8682L375.921 94.104ZM377.073 59.928L383.998 60.947L391.55 9.61895L384.625 8.6L377.699 7.58104L370.147 58.909L377.073 59.928ZM384.625 8.6V15.6H404.465V8.6V1.6H384.625V8.6ZM404.465 8.6L397.537 7.5955L382.689 109.996L389.617 111L396.544 112.004L411.392 9.60449L404.465 8.6ZM389.617 111V104H356.081V111V118H389.617V111ZM412.838 111H405.838V118H412.838V111ZM412.838 8.6V1.6H405.838V8.6H412.838ZM459.686 8.6H466.686V1.6H459.686V8.6ZM459.686 25.496V32.496H466.686V25.496H459.686ZM432.038 25.496V18.496H425.038V25.496H432.038ZM432.038 50.456H425.038V57.456H432.038V50.456ZM458.406 50.456H465.406V43.456H458.406V50.456ZM458.406 67.352V74.352H465.406V67.352H458.406ZM432.038 67.352V60.352H425.038V67.352H432.038ZM432.038 94.104H425.038V101.104H432.038V94.104ZM459.686 94.104H466.686V87.104H459.686V94.104ZM459.686 111V118H466.686V111H459.686ZM412.838 111H419.838V8.6H412.838H405.838V111H412.838ZM412.838 8.6V15.6H459.686V8.6V1.6H412.838V8.6ZM459.686 8.6H452.686V25.496H459.686H466.686V8.6H459.686ZM459.686 25.496V18.496H432.038V25.496V32.496H459.686V25.496ZM432.038 25.496H425.038V50.456H432.038H439.038V25.496H432.038ZM432.038 50.456V57.456H458.406V50.456V43.456H432.038V50.456ZM458.406 50.456H451.406V67.352H458.406H465.406V50.456H458.406ZM458.406 67.352V60.352H432.038V67.352V74.352H458.406V67.352ZM432.038 67.352H425.038V94.104H432.038H439.038V67.352H432.038ZM432.038 94.104V101.104H459.686V94.104V87.104H432.038V94.104ZM459.686 94.104H452.686V111H459.686H466.686V94.104H459.686ZM459.686 111V104H412.838V111V118H459.686V111ZM39.054 236L32.1204 235.038L31.0157 243H39.054V236ZM53.262 133.6V126.6H47.1662L46.3284 132.638L53.262 133.6ZM86.03 133.6L92.9636 132.638L92.1258 126.6H86.03V133.6ZM100.238 236V243H108.276L107.172 235.038L100.238 236ZM80.526 236L73.562 236.709L74.2024 243H80.526V236ZM78.35 214.624L85.314 213.915L84.6736 207.624H78.35V214.624ZM60.942 214.624V207.624H54.6184L53.978 213.915L60.942 214.624ZM58.766 236V243H65.0896L65.73 236.709L58.766 236ZM62.734 197.728L55.7699 197.02L54.986 204.728H62.734V197.728ZM76.558 197.728V204.728H84.306L83.5221 197.02L76.558 197.728ZM74.254 175.072L67.2676 175.509L67.2761 175.645L67.2899 175.78L74.254 175.072ZM72.718 150.496L79.7044 150.059L79.2942 143.496H72.718V150.496ZM66.574 150.496V143.496H59.9978L59.5876 150.059L66.574 150.496ZM65.038 175.072L72.0021 175.78L72.0159 175.645L72.0244 175.509L65.038 175.072ZM39.054 236L45.9876 236.962L60.1956 134.562L53.262 133.6L46.3284 132.638L32.1204 235.038L39.054 236ZM53.262 133.6V140.6H86.03V133.6V126.6H53.262V133.6ZM86.03 133.6L79.0964 134.562L93.3044 236.962L100.238 236L107.172 235.038L92.9636 132.638L86.03 133.6ZM100.238 236V229H80.526V236V243H100.238V236ZM80.526 236L87.49 235.291L85.314 213.915L78.35 214.624L71.386 215.333L73.562 236.709L80.526 236ZM78.35 214.624V207.624H60.942V214.624V221.624H78.35V214.624ZM60.942 214.624L53.978 213.915L51.802 235.291L58.766 236L65.73 236.709L67.906 215.333L60.942 214.624ZM58.766 236V229H39.054V236V243H58.766V236ZM62.734 197.728V204.728H76.558V197.728V190.728H62.734V197.728ZM76.558 197.728L83.5221 197.02L81.2181 174.364L74.254 175.072L67.2899 175.78L69.5939 198.436L76.558 197.728ZM74.254 175.072L81.2404 174.635L79.7044 150.059L72.718 150.496L65.7316 150.933L67.2676 175.509L74.254 175.072ZM72.718 150.496V143.496H66.574V150.496V157.496H72.718V150.496ZM66.574 150.496L59.5876 150.059L58.0516 174.635L65.038 175.072L72.0244 175.509L73.5604 150.933L66.574 150.496ZM65.038 175.072L58.0739 174.364L55.7699 197.02L62.734 197.728L69.6981 198.436L72.0021 175.78L65.038 175.072ZM118.606 234.72L115.832 241.147L115.873 241.165L115.914 241.182L118.606 234.72ZM109.518 226.464L103.299 229.678L103.321 229.72L103.343 229.762L109.518 226.464ZM106.254 211.552L113.25 211.309L113.25 211.302L106.254 211.552ZM105.934 199.328L98.9343 199.393L98.9346 199.426L98.9352 199.459L105.934 199.328ZM105.934 171.04L98.9352 170.908L98.9346 170.941L98.9343 170.974L105.934 171.04ZM106.254 159.072L99.2597 158.79L99.2592 158.802L99.2588 158.813L106.254 159.072ZM109.582 143.648L103.348 140.463L103.335 140.49L103.321 140.517L109.582 143.648ZM118.67 135.072L121.5 141.474L121.516 141.467L121.531 141.46L118.67 135.072ZM155.15 138.272L150.408 143.421L150.422 143.434L150.436 143.447L155.15 138.272ZM162.446 157.92L155.459 158.342L155.46 158.359L155.461 158.376L162.446 157.92ZM162.446 172V179H169.013L169.432 172.446L162.446 172ZM143.246 172L136.253 171.682L135.921 179H143.246V172ZM143.246 155.616L150.239 155.298L150.236 155.242L150.233 155.186L143.246 155.616ZM140.942 149.728L136.25 154.923L136.338 155.002L136.428 155.078L140.942 149.728ZM127.822 149.728L132.336 155.078L132.343 155.072L132.351 155.066L127.822 149.728ZM125.454 155.616L118.475 155.079L118.469 155.148L118.465 155.217L125.454 155.616ZM124.878 169.76L131.876 169.943L131.876 169.941L124.878 169.76ZM124.878 199.776L117.88 199.957L117.88 199.959L124.878 199.776ZM125.454 213.856L118.465 214.255L118.469 214.32L118.474 214.385L125.454 213.856ZM127.822 219.872L123.212 225.14L123.253 225.175L123.293 225.21L127.822 219.872ZM141.518 219.872L137.145 214.406L137.106 214.437L137.068 214.468L141.518 219.872ZM144.142 213.856L151.113 214.49L151.114 214.476L151.116 214.462L144.142 213.856ZM144.27 210.336L137.273 210.124L137.27 210.23V210.336H144.27ZM144.27 206.176H137.27V206.285L137.273 206.395L144.27 206.176ZM144.142 202.592L151.116 201.986L150.56 195.592H144.142V202.592ZM137.102 202.592H130.102V209.592H137.102V202.592ZM137.102 185.952V178.952H130.102V185.952H137.102ZM162.83 185.952L169.819 185.568L169.456 178.952H162.83V185.952ZM163.086 198.752L170.086 198.817L170.086 198.816L163.086 198.752ZM162.702 211.552L155.712 211.172L155.711 211.2L155.709 211.228L162.702 211.552ZM155.47 231.328L150.779 226.132L150.766 226.144L150.754 226.155L155.47 231.328ZM134.542 237.28V230.28C128.541 230.28 124.238 229.483 121.298 228.258L118.606 234.72L115.914 241.182C121.166 243.37 127.487 244.28 134.542 244.28V237.28ZM118.606 234.72L121.38 228.293C118.723 227.146 116.922 225.468 115.693 223.166L109.518 226.464L103.343 229.762C106.125 234.97 110.382 238.795 115.832 241.147L118.606 234.72ZM109.518 226.464L115.737 223.25C114.411 220.686 113.442 216.838 113.25 211.309L106.254 211.552L99.2582 211.795C99.4929 218.554 100.7 224.648 103.299 229.678L109.518 226.464ZM106.254 211.552L113.25 211.302C113.123 207.767 113.018 203.733 112.933 199.197L105.934 199.328L98.9352 199.459C99.0211 204.054 99.1287 208.169 99.2585 211.802L106.254 211.552ZM105.934 199.328L112.934 199.263C112.891 194.678 112.87 189.964 112.87 185.12H105.87H98.87C98.87 190.004 98.8914 194.762 98.9343 199.393L105.934 199.328ZM105.87 185.12H112.87C112.87 180.276 112.891 175.605 112.934 171.106L105.934 171.04L98.9343 170.974C98.8914 175.52 98.87 180.236 98.87 185.12H105.87ZM105.934 171.04L112.933 171.172C113.018 166.68 113.123 162.734 113.249 159.331L106.254 159.072L99.2588 158.813C99.1288 162.322 99.0212 166.355 98.9352 170.908L105.934 171.04ZM106.254 159.072L113.248 159.354C113.481 153.577 114.477 149.511 115.843 146.778L109.582 143.648L103.321 140.517C100.762 145.636 99.539 151.853 99.2597 158.79L106.254 159.072ZM109.582 143.648L115.816 146.833C117.085 144.347 118.909 142.62 121.5 141.474L118.67 135.072L115.84 128.67C110.325 131.108 106.089 135.098 103.348 140.463L109.582 143.648ZM118.67 135.072L121.531 141.46C124.42 140.167 128.638 139.32 134.542 139.32V132.32V125.32C127.475 125.32 121.112 126.308 115.809 128.684L118.67 135.072ZM134.542 132.32V139.32C143.23 139.32 147.983 141.188 150.408 143.421L155.15 138.272L159.892 133.123C153.699 127.42 144.712 125.32 134.542 125.32V132.32ZM155.15 138.272L150.436 143.447C152.799 145.599 154.953 149.977 155.459 158.342L162.446 157.92L169.433 157.498C168.83 147.516 166.12 138.796 159.864 133.097L155.15 138.272ZM162.446 157.92L155.461 158.376C155.576 160.141 155.638 162.328 155.638 164.96H162.638H169.638C169.638 162.131 169.572 159.624 169.431 157.464L162.446 157.92ZM162.638 164.96H155.638C155.638 167.545 155.576 169.737 155.46 171.554L162.446 172L169.432 172.446C169.572 170.252 169.638 167.751 169.638 164.96H162.638ZM162.446 172V165H143.246V172V179H162.446V172ZM143.246 172L150.239 172.318C150.371 169.403 150.438 166.566 150.438 163.808H143.438H136.438C136.438 166.341 136.377 168.965 136.253 171.682L143.246 172ZM143.438 163.808H150.438C150.438 161.05 150.371 158.213 150.239 155.298L143.246 155.616L136.253 155.934C136.377 158.651 136.438 161.275 136.438 163.808H143.438ZM143.246 155.616L150.233 155.186C150.009 151.544 148.924 147.304 145.456 144.378L140.942 149.728L136.428 155.078C136.072 154.778 135.988 154.524 136.023 154.615C136.073 154.741 136.205 155.169 136.259 156.046L143.246 155.616ZM140.942 149.728L145.634 144.533C142.412 141.623 138.163 140.936 134.542 140.936V147.936V154.936C135.572 154.936 136.174 155.044 136.463 155.125C136.735 155.201 136.563 155.205 136.25 154.923L140.942 149.728ZM134.542 147.936V140.936C130.829 140.936 126.571 141.609 123.293 144.39L127.822 149.728L132.351 155.066C132.088 155.289 131.995 155.245 132.362 155.148C132.738 155.047 133.43 154.936 134.542 154.936V147.936ZM127.822 149.728L123.308 144.378C119.883 147.268 118.754 151.452 118.475 155.079L125.454 155.616L132.433 156.153C132.501 155.268 132.641 154.823 132.7 154.676C132.747 154.56 132.675 154.792 132.336 155.078L127.822 149.728ZM125.454 155.616L118.465 155.217C118.205 159.776 118.01 164.564 117.88 169.579L124.878 169.76L131.876 169.941C132.002 165.057 132.191 160.416 132.443 156.015L125.454 155.616ZM124.878 169.76L117.88 169.577C117.751 174.547 117.686 179.6 117.686 184.736H124.686H131.686C131.686 179.717 131.749 174.786 131.876 169.943L124.878 169.76ZM124.686 184.736H117.686C117.686 189.872 117.751 194.946 117.88 199.957L124.878 199.776L131.876 199.595C131.749 194.708 131.686 189.755 131.686 184.736H124.686ZM124.878 199.776L117.88 199.959C118.01 204.931 118.205 209.697 118.465 214.255L125.454 213.856L132.443 213.457C132.191 209.055 132.002 204.434 131.876 199.593L124.878 199.776ZM125.454 213.856L118.474 214.385C118.751 218.042 119.867 222.212 123.212 225.14L127.822 219.872L132.432 214.604C132.735 214.869 132.781 215.065 132.72 214.908C132.647 214.723 132.503 214.241 132.434 213.327L125.454 213.856ZM127.822 219.872L123.293 225.21C126.571 227.991 130.829 228.664 134.542 228.664V221.664V214.664C133.43 214.664 132.738 214.553 132.362 214.452C131.995 214.355 132.088 214.311 132.351 214.534L127.822 219.872ZM134.542 221.664V228.664C138.325 228.664 142.645 228.012 145.968 225.276L141.518 219.872L137.068 214.468C137.322 214.26 137.38 214.324 136.944 214.436C136.503 214.549 135.736 214.664 134.542 214.664V221.664ZM141.518 219.872L145.891 225.338C149.459 222.484 150.767 218.295 151.113 214.49L144.142 213.856L137.171 213.222C137.092 214.09 136.942 214.525 136.878 214.673C136.829 214.785 136.884 214.615 137.145 214.406L141.518 219.872ZM144.142 213.856L151.116 214.462C151.224 213.219 151.27 211.833 151.27 210.336H144.27H137.27C137.27 211.57 137.231 212.53 137.168 213.25L144.142 213.856ZM144.27 210.336L151.267 210.548C151.314 209.001 151.314 207.471 151.267 205.957L144.27 206.176L137.273 206.395C137.311 207.612 137.312 208.855 137.273 210.124L144.27 210.336ZM144.27 206.176H151.27C151.27 204.644 151.224 203.234 151.116 201.986L144.142 202.592L137.168 203.198C137.23 203.913 137.27 204.892 137.27 206.176H144.27ZM144.142 202.592V195.592H137.102V202.592V209.592H144.142V202.592ZM137.102 202.592H144.102V185.952H137.102H130.102V202.592H137.102ZM137.102 185.952V192.952H162.83V185.952V178.952H137.102V185.952ZM162.83 185.952L155.841 186.336C156.044 190.044 156.128 194.159 156.086 198.688L163.086 198.752L170.086 198.816C170.129 194.044 170.042 189.625 169.819 185.568L162.83 185.952ZM163.086 198.752L156.086 198.687C156.044 203.207 155.919 207.368 155.712 211.172L162.702 211.552L169.692 211.932C169.912 207.886 170.042 203.513 170.086 198.817L163.086 198.752ZM162.702 211.552L155.709 211.228C155.322 219.593 153.181 223.963 150.779 226.132L155.47 231.328L160.161 236.524C166.548 230.757 169.228 221.943 169.695 211.876L162.702 211.552ZM155.47 231.328L150.754 226.155C148.293 228.399 143.433 230.28 134.542 230.28V237.28V244.28C144.851 244.28 153.943 242.193 160.186 236.501L155.47 231.328ZM174.025 236H167.025V243H174.025V236ZM174.025 133.6V126.6H167.025V133.6H174.025ZM220.873 133.6H227.873V126.6H220.873V133.6ZM220.873 150.496V157.496H227.873V150.496H220.873ZM193.225 150.496V143.496H186.225V150.496H193.225ZM193.225 175.456H186.225V182.456H193.225V175.456ZM219.593 175.456H226.593V168.456H219.593V175.456ZM219.593 192.352V199.352H226.593V192.352H219.593ZM193.225 192.352V185.352H186.225V192.352H193.225ZM193.225 219.104H186.225V226.104H193.225V219.104ZM220.873 219.104H227.873V212.104H220.873V219.104ZM220.873 236V243H227.873V236H220.873ZM174.025 236H181.025V133.6H174.025H167.025V236H174.025ZM174.025 133.6V140.6H220.873V133.6V126.6H174.025V133.6ZM220.873 133.6H213.873V150.496H220.873H227.873V133.6H220.873ZM220.873 150.496V143.496H193.225V150.496V157.496H220.873V150.496ZM193.225 150.496H186.225V175.456H193.225H200.225V150.496H193.225ZM193.225 175.456V182.456H219.593V175.456V168.456H193.225V175.456ZM219.593 175.456H212.593V192.352H219.593H226.593V175.456H219.593ZM219.593 192.352V185.352H193.225V192.352V199.352H219.593V192.352ZM193.225 192.352H186.225V219.104H193.225H200.225V192.352H193.225ZM193.225 219.104V226.104H220.873V219.104V212.104H193.225V219.104ZM220.873 219.104H213.873V236H220.873H227.873V219.104H220.873ZM220.873 236V229H174.025V236V243H220.873V236ZM230.9 236H223.9V243H230.9V236ZM230.9 133.6V126.6H223.9V133.6H230.9ZM262.516 133.6L269.33 131.997L268.06 126.6H262.516V133.6ZM270.196 166.24L277.135 165.316L277.089 164.973L277.01 164.637L270.196 166.24ZM277.236 219.104L270.297 220.028L271.106 226.104H277.236V219.104ZM283.124 219.104V226.104H290.753L290.098 218.503L283.124 219.104ZM279.54 177.504L272.544 177.749L272.551 177.927L272.566 178.105L279.54 177.504ZM278.004 133.6V126.6H270.755L271.008 133.845L278.004 133.6ZM297.332 133.6H304.332V126.6H297.332V133.6ZM297.332 236V243H304.332V236H297.332ZM264.18 236L257.357 237.563L258.602 243H264.18V236ZM256.5 202.464L249.535 203.166L249.579 203.601L249.677 204.027L256.5 202.464ZM251.252 150.368L258.217 149.666L257.582 143.368H251.252V150.368ZM245.108 150.368V143.368H237.587L238.126 150.869L245.108 150.368ZM248.436 196.704L255.43 196.408L255.425 196.305L255.418 196.203L248.436 196.704ZM250.1 236V243H257.403L257.094 235.704L250.1 236ZM230.9 236H237.9V133.6H230.9H223.9V236H230.9ZM230.9 133.6V140.6H262.516V133.6V126.6H230.9V133.6ZM262.516 133.6L255.702 135.203L263.382 167.843L270.196 166.24L277.01 164.637L269.33 131.997L262.516 133.6ZM270.196 166.24L263.257 167.164L270.297 220.028L277.236 219.104L284.175 218.18L277.135 165.316L270.196 166.24ZM277.236 219.104V226.104H283.124V219.104V212.104H277.236V219.104ZM283.124 219.104L290.098 218.503L286.514 176.903L279.54 177.504L272.566 178.105L276.15 219.705L283.124 219.104ZM279.54 177.504L286.536 177.259L285 133.355L278.004 133.6L271.008 133.845L272.544 177.749L279.54 177.504ZM278.004 133.6V140.6H297.332V133.6V126.6H278.004V133.6ZM297.332 133.6H290.332V236H297.332H304.332V133.6H297.332ZM297.332 236V229H264.18V236V243H297.332V236ZM264.18 236L271.003 234.437L263.323 200.901L256.5 202.464L249.677 204.027L257.357 237.563L264.18 236ZM256.5 202.464L263.465 201.762L258.217 149.666L251.252 150.368L244.287 151.07L249.535 203.166L256.5 202.464ZM251.252 150.368V143.368H245.108V150.368V157.368H251.252V150.368ZM245.108 150.368L238.126 150.869L241.454 197.205L248.436 196.704L255.418 196.203L252.09 149.867L245.108 150.368ZM248.436 196.704L241.442 197L243.106 236.296L250.1 236L257.094 235.704L255.43 196.408L248.436 196.704ZM250.1 236V229H230.9V236V243H250.1V236ZM315.974 231.328L311.258 236.501L311.27 236.512L311.283 236.524L315.974 231.328ZM309.126 211.552L302.127 211.677L302.127 211.695L302.128 211.714L309.126 211.552ZM308.934 197.792L301.934 197.86L301.934 197.86L308.934 197.792ZM308.934 171.68L301.934 171.613L301.934 171.613L308.934 171.68ZM309.126 157.792L316.125 157.916L316.125 157.905L316.125 157.893L309.126 157.792ZM316.102 138.464L320.774 143.677L320.777 143.674L316.102 138.464ZM358.214 138.592L353.413 143.687L353.426 143.698L353.438 143.709L358.214 138.592ZM365.318 157.92L358.321 158.126L358.321 158.132L365.318 157.92ZM365.318 167.456L372.316 167.64L372.316 167.635L365.318 167.456ZM365.19 172V179H371.981L372.187 172.212L365.19 172ZM345.99 172L338.993 171.811L338.798 179H345.99V172ZM346.118 167.072L353.116 167.247L353.116 167.243L346.118 167.072ZM346.118 156.896L339.119 156.989L339.119 157.037L339.121 157.085L346.118 156.896ZM344.006 150.048L338.981 154.921L339.018 154.96L339.056 154.998L344.006 150.048ZM330.566 150.048L335.439 155.073L335.441 155.071L330.566 150.048ZM328.326 156.896L335.323 157.087L335.324 157.083L328.326 156.896ZM328.006 170.912L321.007 170.784L321.007 170.816L321.006 170.848L328.006 170.912ZM328.006 198.624L321.006 198.689L321.007 198.721L321.007 198.754L328.006 198.624ZM328.326 212.576L335.324 212.392L335.323 212.385L328.326 212.576ZM330.566 219.552L325.616 224.502L325.653 224.539L325.691 224.575L330.566 219.552ZM344.326 219.552L339.376 214.602L339.376 214.602L344.326 219.552ZM346.63 212.576L339.638 212.251L339.636 212.275L339.635 212.3L346.63 212.576ZM346.758 207.52L339.761 207.326L339.758 207.423V207.52H346.758ZM346.758 202.848H339.758V202.943L339.761 203.037L346.758 202.848ZM346.63 197.6V190.6H339.312L339.637 197.911L346.63 197.6ZM365.83 197.6L372.824 197.309L372.544 190.6H365.83V197.6ZM365.83 211.552L358.836 211.261L358.834 211.309L358.833 211.358L365.83 211.552ZM358.854 231.328L354.163 226.132L354.15 226.144L354.138 226.155L358.854 231.328ZM337.414 237.28V230.28C328.165 230.28 323.148 228.375 320.665 226.132L315.974 231.328L311.283 236.524C317.589 242.217 326.866 244.28 337.414 244.28V237.28ZM315.974 231.328L320.69 226.155C318.378 224.047 316.318 219.751 316.124 211.39L309.126 211.552L302.128 211.714C302.361 221.785 304.866 230.673 311.258 236.501L315.974 231.328ZM309.126 211.552L316.125 211.427C316.04 206.666 315.976 202.098 315.934 197.724L308.934 197.792L301.934 197.86C301.977 202.275 302.041 206.881 302.127 211.677L309.126 211.552ZM308.934 197.792L315.934 197.724C315.891 193.351 315.87 189.043 315.87 184.8H308.87H301.87C301.87 189.09 301.891 193.443 301.934 197.86L308.934 197.792ZM308.87 184.8H315.87C315.87 180.514 315.891 176.163 315.934 171.747L308.934 171.68L301.934 171.613C301.891 176.072 301.87 180.468 301.87 184.8H308.87ZM308.934 171.68L315.934 171.747C315.976 167.33 316.04 162.72 316.125 157.916L309.126 157.792L302.127 157.668C302.041 162.507 301.977 167.155 301.934 171.613L308.934 171.68ZM309.126 157.792L316.125 157.893C316.238 150.116 318.263 145.927 320.774 143.677L316.102 138.464L311.43 133.251C304.896 139.108 302.27 147.804 302.127 157.691L309.126 157.792ZM316.102 138.464L320.777 143.674C323.497 141.234 328.555 139.32 337.414 139.32V132.32V125.32C326.988 125.32 317.838 127.502 311.427 133.254L316.102 138.464ZM337.414 132.32V139.32C346.002 139.32 350.829 141.251 353.413 143.687L358.214 138.592L363.015 133.497C356.725 127.57 347.684 125.32 337.414 125.32V132.32ZM358.214 138.592L353.438 143.709C356.063 146.16 358.097 150.495 358.321 158.126L365.318 157.92L372.315 157.714C372.027 147.937 369.325 139.387 362.99 133.475L358.214 138.592ZM365.318 157.92L358.321 158.132C358.361 159.458 358.382 160.922 358.382 162.528H365.382H372.382C372.382 160.806 372.36 159.198 372.315 157.708L365.318 157.92ZM365.382 162.528H358.382C358.382 164.088 358.361 165.671 358.32 167.277L365.318 167.456L372.316 167.635C372.36 165.913 372.382 164.211 372.382 162.528H365.382ZM365.318 167.456L358.32 167.272C358.278 168.885 358.236 170.391 358.193 171.788L365.19 172L372.187 172.212C372.23 170.793 372.273 169.269 372.316 167.64L365.318 167.456ZM365.19 172V165H345.99V172V179H365.19V172ZM345.99 172L352.987 172.189C353.03 170.605 353.073 168.958 353.116 167.247L346.118 167.072L339.12 166.897C339.078 168.599 339.035 170.237 338.993 171.811L345.99 172ZM346.118 167.072L353.116 167.243C353.16 165.438 353.182 163.653 353.182 161.888H346.182H339.182C339.182 163.536 339.161 165.207 339.12 166.901L346.118 167.072ZM346.182 161.888H353.182C353.182 160.082 353.16 158.355 353.115 156.707L346.118 156.896L339.121 157.085C339.161 158.594 339.182 160.195 339.182 161.888H346.182ZM346.118 156.896L353.117 156.803C353.065 152.911 352.236 148.378 348.956 145.098L344.006 150.048L339.056 154.998C338.763 154.705 338.774 154.541 338.869 154.847C338.97 155.175 339.103 155.846 339.119 156.989L346.118 156.896ZM344.006 150.048L349.031 145.175C345.779 141.821 341.325 140.936 337.414 140.936V147.936V154.936C338.417 154.936 338.967 155.056 339.198 155.13C339.394 155.193 339.23 155.178 338.981 154.921L344.006 150.048ZM337.414 147.936V140.936C333.437 140.936 329.003 141.81 325.691 145.025L330.566 150.048L335.441 155.071C335.242 155.265 335.153 155.238 335.429 155.153C335.735 155.059 336.356 154.936 337.414 154.936V147.936ZM330.566 150.048L325.693 145.023C322.351 148.263 321.433 152.78 321.328 156.709L328.326 156.896L335.324 157.083C335.354 155.949 335.497 155.285 335.603 154.96C335.701 154.66 335.714 154.806 335.439 155.073L330.566 150.048ZM328.326 156.896L321.329 156.705C321.2 161.419 321.093 166.112 321.007 170.784L328.006 170.912L335.005 171.04C335.09 166.411 335.196 161.76 335.323 157.087L328.326 156.896ZM328.006 170.912L321.006 170.848C320.963 175.52 320.942 180.17 320.942 184.8H327.942H334.942C334.942 180.214 334.963 175.606 335.006 170.976L328.006 170.912ZM327.942 184.8H320.942C320.942 189.43 320.963 194.059 321.006 198.689L328.006 198.624L335.006 198.559C334.963 193.973 334.942 189.386 334.942 184.8H327.942ZM328.006 198.624L321.007 198.754C321.093 203.382 321.2 208.053 321.329 212.767L328.326 212.576L335.323 212.385C335.196 207.712 335.09 203.082 335.005 198.494L328.006 198.624ZM328.326 212.576L321.328 212.76C321.433 216.727 322.346 221.232 325.616 224.502L330.566 219.552L335.516 214.602C335.757 214.844 335.724 214.951 335.615 214.612C335.499 214.25 335.354 213.552 335.324 212.392L328.326 212.576ZM330.566 219.552L325.691 224.575C329.003 227.79 333.437 228.664 337.414 228.664V221.664V214.664C336.356 214.664 335.735 214.541 335.429 214.447C335.153 214.362 335.242 214.335 335.441 214.529L330.566 219.552ZM337.414 221.664V228.664C341.388 228.664 345.949 227.829 349.276 224.502L344.326 219.552L339.376 214.602C339.636 214.342 339.78 214.355 339.496 214.442C339.184 214.537 338.533 214.664 337.414 214.664V221.664ZM344.326 219.552L349.276 224.502C352.511 221.266 353.468 216.808 353.625 212.852L346.63 212.576L339.635 212.3C339.589 213.467 339.436 214.178 339.311 214.557C339.193 214.916 339.15 214.829 339.376 214.602L344.326 219.552ZM346.63 212.576L353.622 212.901C353.712 210.978 353.758 209.183 353.758 207.52H346.758H339.758C339.758 208.929 339.719 210.504 339.638 212.251L346.63 212.576ZM346.758 207.52L353.755 207.714C353.802 206.047 353.801 204.362 353.755 202.659L346.758 202.848L339.761 203.037C339.8 204.492 339.8 205.921 339.761 207.326L346.758 207.52ZM346.758 202.848H353.758C353.758 201.146 353.712 199.291 353.623 197.289L346.63 197.6L339.637 197.911C339.719 199.749 339.758 201.392 339.758 202.848H346.758ZM346.63 197.6V204.6H365.83V197.6V190.6H346.63V197.6ZM365.83 197.6L358.836 197.891C358.916 199.821 358.958 202.046 358.958 204.576H365.958H372.958C372.958 201.901 372.914 199.475 372.824 197.309L365.83 197.6ZM365.958 204.576H358.958C358.958 207.106 358.916 209.331 358.836 211.261L365.83 211.552L372.824 211.843C372.914 209.677 372.958 207.251 372.958 204.576H365.958ZM365.83 211.552L358.833 211.358C358.601 219.706 356.514 224.009 354.163 226.132L358.854 231.328L363.545 236.524C369.983 230.711 372.547 221.83 372.827 211.746L365.83 211.552ZM358.854 231.328L354.138 226.155C351.712 228.367 346.724 230.28 337.414 230.28V237.28V244.28C347.986 244.28 357.292 242.225 363.57 236.501L358.854 231.328ZM389.971 236H382.971V243H389.971V236ZM389.971 203.36H396.971V196.36H389.971V203.36ZM387.923 203.36L381.125 205.031L382.436 210.36H387.923V203.36ZM370.771 133.6V126.6H361.841L363.973 135.271L370.771 133.6ZM390.355 133.6L397.189 132.085L395.973 126.6H390.355V133.6ZM395.859 158.432L402.845 157.986L402.81 157.446L402.693 156.917L395.859 158.432ZM397.779 188.512L390.793 188.958L391.212 195.512H397.779V188.512ZM401.363 188.512V195.512H407.93L408.349 188.958L401.363 188.512ZM403.283 158.432L396.449 156.917L396.332 157.446L396.297 157.986L403.283 158.432ZM408.787 133.6V126.6H403.169L401.953 132.085L408.787 133.6ZM428.371 133.6L435.166 135.283L437.317 126.6H428.371V133.6ZM411.091 203.36V210.36H416.569L417.886 205.043L411.091 203.36ZM409.171 203.36V196.36H402.171V203.36H409.171ZM409.171 236V243H416.171V236H409.171ZM389.971 236H396.971V203.36H389.971H382.971V236H389.971ZM389.971 203.36V196.36H387.923V203.36V210.36H389.971V203.36ZM387.923 203.36L394.721 201.689L377.569 131.929L370.771 133.6L363.973 135.271L381.125 205.031L387.923 203.36ZM370.771 133.6V140.6H390.355V133.6V126.6H370.771V133.6ZM390.355 133.6L383.521 135.115L389.025 159.947L395.859 158.432L402.693 156.917L397.189 132.085L390.355 133.6ZM395.859 158.432L388.873 158.878L390.793 188.958L397.779 188.512L404.765 188.066L402.845 157.986L395.859 158.432ZM397.779 188.512V195.512H401.363V188.512V181.512H397.779V188.512ZM401.363 188.512L408.349 188.958L410.269 158.878L403.283 158.432L396.297 157.986L394.377 188.066L401.363 188.512ZM403.283 158.432L410.117 159.947L415.621 135.115L408.787 133.6L401.953 132.085L396.449 156.917L403.283 158.432ZM408.787 133.6V140.6H428.371V133.6V126.6H408.787V133.6ZM428.371 133.6L421.576 131.917L404.296 201.677L411.091 203.36L417.886 205.043L435.166 135.283L428.371 133.6ZM411.091 203.36V196.36H409.171V203.36V210.36H411.091V203.36ZM409.171 203.36H402.171V236H409.171H416.171V203.36H409.171ZM409.171 236V229H389.971V236V243H409.171V236Z" fill="#CAFA08" mask="url(#path-1-outside-1_31_2)"/>
</svg>
